<svg xmlns="http://www.w3.org/2000/svg" width="51" height="55" fill="none" class="text-[#CBD6CB]"><g clip-path="url(#faqs_svg__a)"><g fill="currentColor" clip-path="url(#faqs_svg__b)"><path d="M42.99 0h-17.6c-4.36 0-7.78 3.42-7.78 7.78v9.83H7.78C3.42 17.61 0 21.03 0 25.39v10.57c0 3.46 2.12 6.37 5.28 7.39v10.98l10.58-10.59h9.53c4.36 0 7.78-3.42 7.78-7.78v-9.83h1.75L45.5 36.72V25.74c3.16-1.03 5.28-3.93 5.28-7.39V7.78C50.78 3.41 47.36 0 43 0zM25.38 41.26H14.82l-7.04 7.05v-6.95l-1.02-.19c-2.51-.46-4.26-2.6-4.26-5.19V25.41c0-3.01 2.27-5.28 5.28-5.28H18.3l.02 1.18c0 2.28 1.75 4 4.06 4l8.28.14v10.54c0 3.01-2.27 5.28-5.28 5.28zm22.89-22.91c0 2.6-1.75 4.73-4.26 5.19l-1.02.19v6.95l-7.04-7.05h-4.59l-8.95-.15c-1.32 0-2.28-.92-2.28-2.21l-.04-2.17c0-.36.02-.7.02-.76V7.78c0-3.01 2.27-5.28 5.28-5.28h17.6c3.01 0 5.28 2.27 5.28 5.28z"></path><path d="m32.88 7.69-3.72 9.84h2.32l.68-1.97h3.73l.68 1.97H39l-3.72-9.84zm-.04 5.91 1.19-3.41 1.17 3.41zM21.13 30.35c0-.71-.12-1.36-.35-1.97-.24-.6-.58-1.13-1.02-1.58s-.95-.79-1.55-1.03a5.2 5.2 0 0 0-1.96-.37c-.71 0-1.36.12-1.95.37-.6.24-1.12.58-1.54 1.03-.44.45-.78.98-1.01 1.58a5.4 5.4 0 0 0-.37 1.97c0 .7.12 1.37.37 1.97.23.61.57 1.13 1.01 1.58.42.45.94.79 1.54 1.03.58.24 1.24.37 1.95.37.67 0 1.31-.12 1.9-.37l.75.98h2.11l-1.44-1.88c.49-.45.87-.98 1.16-1.62.27-.63.41-1.32.41-2.07zm-2.85 2.06-.79-1.02H15.4l1.47 1.92c-.2.04-.41.07-.63.07-.5 0-.95-.12-1.35-.38a2.57 2.57 0 0 1-.92-1.06c-.23-.45-.34-.98-.34-1.58s.11-1.13.34-1.58c.22-.45.53-.79.92-1.05.39-.24.84-.37 1.35-.37s.98.12 1.37.37c.39.26.69.6.93 1.05.23.45.34.98.34 1.58 0 .84-.2 1.52-.6 2.05"></path></g></g><defs><clipPath id="faqs_svg__a"><path fill="#fff" d="M0 0h50.77v54.34H0z"></path></clipPath><clipPath id="faqs_svg__b"><path fill="#fff" d="M0 0h50.77v54.34H0z"></path></clipPath></defs></svg>