<svg width="42" height="42" viewBox="0 0 42 42" fill="none" xmlns="http://www.w3.org/2000/svg">
<rect x="0.161407" y="0.0966797" width="41.8067" height="41.8067" rx="20.9034" fill="url(#paint0_linear_366_9373)"/>
<path d="M29.2792 12.7386C28.6225 12.0819 27.7644 11.7536 26.9137 11.7536C26.0555 11.7536 25.1899 12.0819 24.5333 12.746L20.6381 16.6487L16.7354 12.746C16.0712 12.0744 15.2131 11.7461 14.355 11.7461C13.4968 11.7461 12.6387 12.0744 11.982 12.7311L7.23613 17.477C5.93026 18.7828 5.93026 20.9095 7.24359 22.2229L20.6306 35.6099L34.0176 22.2229C35.3309 20.917 35.3235 18.7903 34.0176 17.477L29.2792 12.7386Z" fill="#7D3F98"/>
<defs>
<linearGradient id="paint0_linear_366_9373" x1="21.0648" y1="0.0966797" x2="21.0648" y2="41.9034" gradientUnits="userSpaceOnUse">
<stop stop-color="#F1E0F9"/>
<stop offset="1" stop-color="white" stop-opacity="0.81"/>
</linearGradient>
</defs>
</svg>
