<svg width="126" height="26" viewBox="0 0 126 26" fill="none" xmlns="http://www.w3.org/2000/svg">
<g clip-path="url(#clip0_1_180)">
<path d="M104.603 10.19C105.947 9.53165 107.809 8.93773 109.605 8.93773C110.962 8.93773 111.916 9.21625 112.519 9.89694C113.115 10.57 113.316 11.5814 113.316 12.9122V13.3037V13.5472L113.073 13.5385C112.889 13.532 112.429 13.5319 112.17 13.5319C108.862 13.5319 106.483 14.0337 104.939 14.9694C103.413 15.8935 102.685 17.2498 102.685 19.0343C102.685 20.9183 103.153 22.3671 104.244 23.3511C105.34 24.3402 107.11 24.9013 109.808 24.9013C111.148 24.9013 112.482 24.8123 113.905 24.7173C113.995 24.7113 114.085 24.7053 114.175 24.6993C115.622 24.6031 117.162 24.5065 118.881 24.497C118.657 22.9557 118.651 20.8869 118.651 19.4605C118.651 19.4602 118.651 19.4599 118.651 19.4596L104.603 10.19ZM104.603 10.19L104.402 6.50125L104.603 10.19ZM94.1633 24.503C94.2701 22.7737 94.3492 18.4301 94.3492 15.9564C94.3492 15.4247 94.3407 14.7077 94.3323 14.1246C94.328 13.8328 94.3238 13.5742 94.3207 13.3886L94.3168 13.1697L94.3158 13.1106L94.3155 13.0953L94.3154 13.0944C94.3154 13.0937 94.3154 13.093 94.3154 13.0922C94.3152 11.6543 94.139 10.6074 93.6334 9.92171C93.1117 9.21424 92.2838 8.94448 91.1375 8.94448C90.2385 8.94448 89.4097 9.11153 88.7533 9.33501L88.5981 9.38782L88.5941 9.55162C88.5265 12.2596 88.5062 14.2795 88.5062 15.9486C88.4934 18.7282 88.602 22.7845 88.7409 24.4963H82.891C82.999 22.7673 83.0896 18.4246 83.0768 15.9489C83.09 13.4468 83.0839 9.4429 82.8889 6.13315C84.6421 6.12088 86.0996 5.98129 87.5046 5.84264L87.6222 5.83103C89.0521 5.68981 90.4319 5.55353 92.0352 5.55353C94.9767 5.55353 96.9067 6.08716 98.1043 7.15996C99.2946 8.22621 99.8121 9.87211 99.8123 12.2287C99.8123 12.2293 99.8123 12.2299 99.8123 12.2304L99.8123 12.2329L99.812 12.251L99.8109 12.3211L99.8071 12.5832C99.8039 12.8069 99.7997 13.1218 99.7955 13.4866C99.787 14.2157 99.7786 15.1446 99.7786 15.9424M99.7786 15.9424C99.7786 15.942 99.7786 15.9416 99.7786 15.9413L100.014 15.9429H99.7786C99.7786 15.9427 99.7786 15.9425 99.7786 15.9424ZM48.7735 13.6732L48.9967 13.6874L49.022 13.4653C49.3155 10.8903 50.1015 8.92507 51.5827 7.59963C53.0642 6.27394 55.2799 5.55353 58.5084 5.55353C61.17 5.55353 63.0757 6.11526 64.311 7.06491C65.5371 8.00753 66.1303 9.35343 66.1303 10.9952C66.1303 12.8991 65.4124 14.2661 64.0048 15.1706C62.5786 16.087 60.4188 16.5449 57.5094 16.5449C56.8298 16.5449 55.6659 16.5247 55.0835 16.4979L54.8377 16.4866V16.7326V16.8609C54.8377 18.2645 55.3009 19.4351 56.2127 20.2522C57.1211 21.0663 58.4459 21.5036 60.1216 21.5036C61.9824 21.5036 63.6893 20.973 64.9832 20.2917L65.1836 23.975C63.889 24.5275 61.5285 24.9148 59.1699 24.9148C55.8581 24.9148 53.4571 24.3462 51.8153 23.0532C50.1812 21.7664 49.2555 19.7263 48.9753 16.6774L48.9565 16.4733L48.7517 16.4641C47.9933 16.4303 46.843 16.3897 45.2806 16.3761L45.0522 16.3742L45.0437 16.6024C45.0387 16.7358 45.0338 16.8673 45.0289 16.997C44.9939 17.9214 44.9625 18.7503 44.9625 19.4596C44.9625 20.8856 44.9679 22.9549 45.1983 24.497C43.476 24.5065 41.9347 24.6031 40.4874 24.6993C40.3962 24.7053 40.3055 24.7114 40.2151 24.7174C38.7918 24.8123 37.4587 24.9013 36.1189 24.9013C33.4211 24.9013 31.6511 24.3402 30.555 23.3511C29.4645 22.3671 28.9965 20.9183 28.9965 19.0343C28.9965 17.25 29.726 15.8936 31.2524 14.9694C32.7978 14.0337 35.1765 13.5319 38.4814 13.5319C38.7408 13.5319 39.2073 13.532 39.3839 13.5385L39.6235 13.5474L39.6276 13.3077L39.6343 12.9162H39.6344V12.9122C39.6344 11.5814 39.4331 10.57 38.837 9.89694C38.2342 9.21625 37.2799 8.93773 35.9232 8.93773C34.1331 8.93773 32.2663 9.53165 30.9205 10.19L30.7199 6.50126C32.2272 5.92846 34.6325 5.53329 37.3676 5.53329C40.2699 5.53329 42.1992 6.01126 43.4076 7.0894C44.6086 8.16092 45.1515 9.87555 45.1515 12.4937C45.1515 12.6372 45.1499 12.7793 45.1482 12.9221L45.1481 12.9263C45.1465 13.0672 45.1448 13.209 45.1448 13.3509V13.5848L45.3787 13.5859C46.7952 13.5927 47.829 13.6129 48.7735 13.6732ZM39.5399 16.5389L39.5417 16.3224L39.3261 16.3028C39.1346 16.2854 38.8832 16.2867 38.6638 16.2879C38.6121 16.2881 38.5621 16.2884 38.5151 16.2884C37.1134 16.2884 36.0882 16.521 35.4086 16.9975C34.712 17.4858 34.4124 18.2053 34.4124 19.0816C34.4124 19.9666 34.6391 20.6416 35.1845 21.084C35.7176 21.5165 36.5079 21.6858 37.5364 21.6858C38.1725 21.6858 38.9025 21.6033 39.4061 21.4686L39.593 21.4186L39.5798 21.2255C39.5043 20.1223 39.5196 18.5977 39.5338 17.1772C39.5359 16.9614 39.5381 16.748 39.5399 16.5389ZM54.8107 13.5197V13.7356L55.0259 13.7538C55.5164 13.7953 56.1807 13.8019 56.7939 13.8019C58.0878 13.8019 59.0917 13.5861 59.7767 13.0996C60.4781 12.6014 60.8088 11.8466 60.8088 10.867C60.8088 10.1562 60.5667 9.57927 60.1144 9.18323C59.6664 8.79101 59.0399 8.60023 58.3126 8.60023C57.0226 8.60023 56.1279 9.12301 55.5689 10.013C55.0213 10.8848 54.8107 12.0849 54.8107 13.4252V13.5197ZM75.8017 9.73422H75.5667V9.96922V17.3064C75.5667 18.7241 75.7055 19.6999 76.1413 20.3166C76.5974 20.9621 77.3318 21.1593 78.3329 21.1593C78.6583 21.1593 79.0102 21.1108 79.329 21.0297C79.4988 20.9866 79.6645 20.9328 79.8147 20.8695L80.0372 24.5052C79.4273 24.6517 78.0544 24.8878 76.2471 24.8878C74.1816 24.8878 72.6474 24.4521 71.6293 23.5302C70.616 22.6127 70.0697 21.1728 70.0697 19.0613C70.0697 15.6954 70.1304 11.9983 70.1642 9.97314L70.1682 9.73422H69.9292H68.0058C68.0166 9.32471 68.0132 8.85927 68.0076 8.39451C68.0064 8.29674 68.0052 8.19901 68.0039 8.10177C67.9988 7.71306 67.9939 7.3321 67.9956 6.98753C69.558 6.69572 70.6335 6.08754 71.3732 5.09441C72.1052 4.1116 72.4868 2.77904 72.7262 1.0851H75.8439C75.73 2.53829 75.6274 4.52106 75.6274 5.89228V6.12728H75.8624H79.4276V9.73422H75.8017ZM113.215 16.5379L113.216 16.3224L113.001 16.3028C112.81 16.2854 112.558 16.2867 112.342 16.2879C112.291 16.2881 112.243 16.2884 112.197 16.2884C110.795 16.2884 109.77 16.521 109.091 16.9975C108.394 17.4858 108.094 18.2053 108.094 19.0816C108.094 19.966 108.319 20.6413 108.864 21.0839C109.396 21.5166 110.187 21.6858 111.218 21.6858C111.848 21.6858 112.584 21.6034 113.088 21.4686L113.276 21.4183L113.262 21.2243C113.187 20.2026 113.198 18.8205 113.209 17.4923C113.211 17.169 113.214 16.8488 113.215 16.5379Z" fill="#869DBD" fill-opacity="0.75" stroke="#0D172B" stroke-width="0.47"/>
</g>
<defs>
<clipPath id="clip0_1_180">
<rect width="125.204" height="24.2997" fill="white" transform="translate(0.434204 0.850098)"/>
</clipPath>
</defs>
</svg>
