<svg width="42" height="42" viewBox="0 0 42 42" fill="none" xmlns="http://www.w3.org/2000/svg">
<rect x="0.161407" y="0.0966797" width="41.8067" height="41.8067" rx="20.9034" fill="url(#paint0_linear_366_9356)"/>
<path d="M31.9305 25.9161H25.7536L25.7553 32.0817H15.922V25.9161H9.74246V16.0846H15.922V9.91895H25.7536V16.0846H31.9305V25.9161Z" fill="#1355E9"/>
<path d="M15.3396 18.4252H19.4281C19.8338 18.4277 20.1589 18.311 20.3487 18.1138C20.5906 17.8673 20.6088 17.4962 20.2759 17.0888C19.6855 16.3674 20.1953 15.6772 20.8169 15.7006C21.4359 15.7265 21.9482 16.3674 21.3605 17.0888C21.025 17.4962 21.0432 17.8647 21.2876 18.1138C21.4749 18.3084 21.8026 18.4277 22.2083 18.4277H26.4035C25.9613 17.4728 25.8235 17.2185 25.064 16.5646C24.0575 15.6954 22.1823 14.8936 20.8663 14.8936C19.1836 14.8936 17.6621 15.576 16.5593 16.6762C16.0548 17.1796 15.6413 17.7713 15.337 18.4252H15.3396ZM17.0561 25.7115C17.4462 24.9798 19.1498 21.8114 19.6829 20.8176C20.2733 19.7122 19.6283 19.2503 18.757 19.1984C17.943 19.1517 16.6192 18.9337 15.1341 18.9C14.9026 19.5435 14.7752 20.2467 14.7752 20.9707C14.7752 22.8857 15.6647 24.5957 17.0561 25.7115ZM24.2474 26.0281C24.2474 26.0281 21.5087 22.0761 21.3579 21.8192C21.2018 21.5649 21.0718 21.4066 20.8143 21.4066C20.5568 21.4066 20.4268 21.5623 20.2733 21.8192C20.1381 22.045 17.9326 25.2418 17.4202 25.984C18.4007 26.6586 19.5867 27.0479 20.8663 27.0479C22.1459 27.0479 23.2825 26.6716 24.2474 26.0281ZM26.9574 20.9707C26.9574 20.239 26.83 19.5383 26.5933 18.8896C25.0692 18.9156 23.7064 19.1491 22.8767 19.1984C22.0003 19.2503 21.3579 19.7148 21.9456 20.8176C22.5412 21.9204 24.5205 25.6181 24.5985 25.7738C26.0341 24.6606 26.9574 22.9246 26.9574 20.9733V20.9707Z" fill="white"/>
<path d="M19.6049 17.6305H16.7986C17.4176 16.8079 18.3174 16.1903 19.2693 15.9854C18.9598 17.0622 19.6049 17.1401 19.6049 17.6305ZM24.8351 17.6305C24.1277 16.9247 23.3162 16.1903 22.3617 15.9854C22.6712 17.0648 22.0262 17.1427 22.0262 17.6305H24.8351ZM20.8168 22.5633C20.6374 22.5633 18.6295 25.7264 18.6295 25.7264C19.2199 26.0326 19.969 26.1883 20.8168 26.1883C21.6647 26.1883 22.4137 26.0352 23.0067 25.7264C23.0067 25.7264 20.9963 22.5633 20.8168 22.5633ZM22.9547 20.0204C22.7258 20.0463 22.5178 20.0697 22.7258 20.4563C22.9287 20.8403 24.8091 24.3849 24.8091 24.3849C25.735 23.2302 26.328 21.79 25.9691 19.7868C25.9691 19.7868 23.1368 20.0178 22.9547 20.0178V20.0204ZM18.679 20.0204C18.4995 20.0204 15.6672 19.7894 15.6672 19.7894C15.3057 21.7926 15.8987 23.2328 16.8246 24.3875C16.8246 24.3875 18.705 20.8429 18.913 20.4589C19.1159 20.0723 18.913 20.0463 18.679 20.0229V20.0204Z" fill="#1355E9"/>
<defs>
<linearGradient id="paint0_linear_366_9356" x1="21.0648" y1="0.0966797" x2="21.0648" y2="41.9034" gradientUnits="userSpaceOnUse">
<stop stop-color="#D2DFFB"/>
<stop offset="1" stop-color="#D2DFFB" stop-opacity="0.81"/>
</linearGradient>
</defs>
</svg>
