<svg width="130" height="24" viewBox="0 0 130 24" fill="none" xmlns="http://www.w3.org/2000/svg">
<g clip-path="url(#clip0_1_176)">
<path d="M129.548 16.7267H123.371L123.372 22.8923H113.539V16.7267H107.36V6.89511H113.539V0.729492H123.371V6.89511H129.548V16.7267Z" fill="#869DBD" fill-opacity="0.75"/>
<path d="M117.045 9.23558C117.451 9.23818 117.776 9.12141 117.966 8.9242C118.208 8.67769 118.226 8.30663 117.893 7.89923C117.303 7.17786 117.813 6.48763 118.434 6.51099C119.053 6.53693 119.566 7.17786 118.978 7.89923C118.642 8.30663 118.66 8.6751 118.905 8.9242C119.092 9.11882 119.42 9.23818 119.826 9.23818H124.021C123.579 8.28327 123.441 8.02898 122.681 7.37507C121.675 6.5058 119.8 5.70398 118.484 5.70398C116.801 5.70398 115.279 6.38643 114.177 7.48665C113.672 7.99005 113.259 8.58168 112.954 9.23558H117.045ZM114.673 16.5219C115.064 15.7902 116.767 12.6219 117.3 11.628C117.891 10.5226 117.246 10.0607 116.374 10.0089C115.56 9.96214 114.236 9.74418 112.751 9.71044C112.52 10.354 112.392 11.0572 112.392 11.7811C112.392 13.6961 113.282 15.4062 114.673 16.5219ZM121.865 16.8385C121.865 16.8385 119.126 12.8865 118.975 12.6297C118.819 12.3754 118.689 12.2171 118.432 12.2171C118.174 12.2171 118.044 12.3728 117.891 12.6297C117.755 12.8554 115.55 16.0523 115.037 16.7944C116.018 17.4691 117.204 17.8583 118.484 17.8583C119.763 17.8583 120.9 17.482 121.865 16.8385ZM124.575 11.7811C124.575 11.0494 124.447 10.3488 124.211 9.70006C122.687 9.72601 121.324 9.95955 120.494 10.0089C119.618 10.0607 118.975 10.5252 119.563 11.628C120.159 12.7309 122.138 16.4285 122.216 16.5842C123.651 15.471 124.575 13.7351 124.575 11.7837V11.7811Z" fill="#0D172A"/>
<path d="M13.8507 18.7088H5.69969L4.06897 22.8892H0.256165L7.73613 4.27625H12.0145L19.5257 22.8917H15.4788L13.8481 18.7114L13.8507 18.7088ZM12.6283 15.486L9.77518 8.13999L6.92208 15.486H12.6283ZM20.9743 8.98072H24.5245V10.9554C25.2527 9.47374 26.6493 8.60187 28.4829 8.60187C31.6845 8.60187 33.7522 10.8386 33.7522 14.4688V22.8917H30.2021V14.993C30.2021 13.1039 29.1253 11.9129 27.3776 11.9129C25.6298 11.9129 24.5245 13.1039 24.5245 14.993V22.8917H20.9743V8.98072ZM35.063 8.98072H37.5078V5.37906H41.1177V8.98072H44.8447V12.1153H41.1177V18.0394C41.1177 19.3446 41.6431 19.9544 42.6886 19.9544C43.357 19.9544 43.9994 19.6637 44.3479 19.2589L45.9214 21.9005C45.1646 22.6556 43.8538 23.2654 42.1372 23.2654C39.3153 23.2654 37.5104 21.5243 37.5104 18.125V12.1127H35.0656V8.97813L35.063 8.98072ZM47.651 2.91135H51.2011V10.9554C51.9293 9.47374 53.326 8.60187 55.1596 8.60187C58.3612 8.60187 60.4288 10.8386 60.4288 14.4688V22.8917H56.8787V14.993C56.8787 13.1039 55.802 11.9129 54.0542 11.9129C52.3065 11.9129 51.2011 13.1039 51.2011 14.993V22.8917H47.651V2.91135ZM62.3534 15.922C62.3534 11.8844 65.3522 8.60447 69.3679 8.60447C73.3835 8.60447 76.4109 11.6534 76.4109 15.6625C76.4109 16.127 76.3823 16.6797 76.3225 16.9106H65.9894C66.3665 18.8282 67.823 20.162 69.9478 20.162C71.3731 20.162 72.5669 19.5522 73.3835 18.7114L75.2171 21.1506C74.1404 22.3416 72.1611 23.2706 69.8334 23.2706C65.4952 23.2706 62.3534 19.9881 62.3534 15.9246V15.922ZM66.0804 14.4403H72.7463C72.3094 12.5824 71.0584 11.5937 69.4277 11.5937C67.797 11.5937 66.5174 12.7562 66.0804 14.4403ZM78.3953 22.8917V8.98072H81.9454V11.1007C82.6737 9.59051 84.0417 8.60187 85.8753 8.60187C88.0002 8.60187 89.6309 9.6476 90.4449 11.5055C91.1732 9.85 92.5126 8.60187 94.7233 8.60187C97.9535 8.60187 100.078 10.7504 100.078 14.4688V22.8917H96.4971V14.993C96.4971 13.1039 95.4489 11.9129 93.761 11.9129C92.0731 11.9129 90.9963 13.1039 90.9963 14.993V22.8917H87.4462V14.993C87.4462 13.1039 86.3981 11.9129 84.7101 11.9129C83.0222 11.9129 81.9454 13.1039 81.9454 14.993V22.8917H78.3953Z" fill="#869DBD" fill-opacity="0.75"/>
</g>
<defs>
<clipPath id="clip0_1_176">
<rect width="129.291" height="22.5411" fill="white" transform="translate(0.256012 0.729492)"/>
</clipPath>
</defs>
</svg>
