<svg width="62" height="34" viewBox="0 0 62 34" fill="none" xmlns="http://www.w3.org/2000/svg">
<g clip-path="url(#clip0_1_182)">
<path d="M39.5216 27.101C39.5216 26.5668 39.3276 26.5355 39.3276 26.5355H39.0361C38.5507 26.5355 38.0653 26.05 38.0653 25.5646V20.6361C38.0653 18.6468 39.2533 17.4576 40.7816 17.4576C42.0915 17.4576 43.0624 18.1846 43.0624 19.786V25.5646C43.0624 26.05 42.577 26.5355 42.0915 26.5355H41.8C41.8 26.5355 41.6061 26.5866 41.6061 27.0813C41.6061 27.576 41.8 27.8419 41.8 27.8419H47.5253C47.5253 27.8419 47.7192 27.6271 47.7192 27.1324C47.7192 26.6377 47.5253 26.5366 47.5253 26.5366H47.2338C46.7484 26.5366 46.2629 26.0512 46.2629 25.5658V19.6664C46.2629 16.8758 44.5163 15.5182 41.9928 15.5182C40.1255 15.5182 38.6936 16.3915 37.8203 17.6771C37.8203 17.6771 37.8156 16.4043 37.8156 16.251C37.8156 15.8353 37.4161 15.6901 36.9377 15.8829C36.6148 16.0129 34.9844 16.5866 33.6024 16.5866C33.5258 16.6888 33.4062 16.8955 33.4062 17.2335C33.4062 17.5308 33.4758 17.6864 33.6001 17.8896H33.8916C34.377 17.8896 34.8624 18.375 34.8624 18.8605V25.5646C34.8624 26.05 34.377 26.5355 33.8916 26.5355H33.6001C33.6001 26.5355 33.4062 26.5668 33.4062 27.0906C33.4062 27.6155 33.6001 27.8408 33.6001 27.8408H39.3253C39.3288 27.8419 39.5216 27.6364 39.5216 27.101Z" fill="#869DBD" fill-opacity="0.75"/>
<path d="M28.9358 16.4029C28.0694 15.8362 26.9836 15.5018 25.791 15.5018C22.7948 15.5018 20.5953 17.5073 20.5953 20.0215C20.5953 21.5684 21.4407 22.8249 22.6009 23.5983L20.5651 26.1277C20.5651 26.1277 20.3061 26.5968 20.3061 27.0637C20.3061 27.5293 20.6023 27.844 20.6023 27.844H22.0458C20.9832 28.4723 20.4989 29.5186 20.4989 30.4128C20.4989 32.1525 22.0214 33.5785 25.4298 33.5785C28.8615 33.5785 32.0515 31.7658 32.0515 28.9136C32.0515 26.8837 30.8438 25.5075 27.8221 25.5075H23.2547L24.1489 24.2974C24.6564 24.467 25.0675 24.539 25.7921 24.539C28.7651 24.539 30.9878 22.509 30.9878 20.0192C30.9878 19.2458 30.7718 18.5223 30.3909 17.8894H32.1572C32.2501 17.728 32.3512 17.5039 32.3512 17.1299C32.3512 16.8373 32.242 16.5202 32.1596 16.4006H28.9358V16.4029ZM24.1478 27.845H26.8548C28.4736 27.845 29.0299 28.7473 29.0299 29.6647C29.0299 30.8249 27.9185 32.0082 25.913 32.0082C24.0282 32.0082 22.9644 31.1619 22.9644 29.9054C22.9632 29.0599 23.4475 28.2073 24.1478 27.845ZM25.7918 23.042C24.4389 23.042 23.5679 21.9063 23.5679 20.0215C23.5679 18.1367 24.4377 17.001 25.7918 17.001C27.1215 17.001 27.9913 18.1367 27.9913 20.0215C27.9913 21.9063 27.1215 23.042 25.7918 23.042Z" fill="#869DBD" fill-opacity="0.75"/>
<path d="M11.6437 23.7817C11.2546 23.6458 10.9365 23.7654 10.9365 23.7654C10.0376 25.3262 9.22469 26.0451 7.96119 26.0451C5.6804 26.0451 4.22528 23.9838 4.22528 21.5334C4.22528 19.2526 5.24375 17.0206 7.59771 17.0206C9.07721 17.0206 10.2141 17.9427 10.2141 19.349L10.2478 19.7857C10.2478 19.7857 10.2025 19.9796 10.818 19.9796C11.4335 19.9796 11.6007 19.7857 11.6007 19.7857L11.4788 16.6084C11.4788 16.6084 11.466 16.5247 11.4219 16.4667C11.3789 16.4098 11.3081 16.3656 11.3081 16.3656C10.3616 15.8326 9.10043 15.5167 7.62093 15.5167C4.15212 15.5167 0.926025 17.8451 0.926025 22.0432C0.926025 25.8035 3.76425 28.1807 7.01589 28.1807C10.0724 28.1807 11.4916 26.2634 12.1221 24.1289C12.121 24.1266 11.9503 23.8885 11.6437 23.7817Z" fill="#869DBD" fill-opacity="0.75"/>
<path d="M15.9919 14.6531C17.0997 14.6531 17.9986 13.731 17.9986 12.5952C17.9986 11.4572 17.0997 10.5363 15.9919 10.5363C14.884 10.5363 13.9851 11.4572 13.9851 12.5952C13.9851 13.731 14.884 14.6531 15.9919 14.6531Z" fill="#869DBD" fill-opacity="0.75"/>
<path d="M17.5933 18.42C17.5933 17.9346 18.0787 17.4492 18.5641 17.4492H18.8556C18.8556 17.4492 19.0495 17.3272 19.0495 16.8569C19.0495 16.3854 18.8556 16.1439 18.8556 16.1439H13.1304C13.1304 16.1439 12.9364 16.44 12.9364 16.8975C12.9364 17.3551 13.1304 17.4492 13.1304 17.4492H13.4219C13.9073 17.4492 14.3927 17.9346 14.3927 18.42V25.5631C14.3927 26.0486 13.9073 26.534 13.4219 26.534H13.1304C13.1304 26.534 12.9364 26.6292 12.9364 27.0868C12.9364 27.5443 13.1304 27.8404 13.1304 27.8404H18.8556C18.8556 27.8404 19.0495 27.5989 19.0495 27.1274C19.0495 26.6571 18.8556 26.5351 18.8556 26.5351H18.5641C18.0787 26.5351 17.5933 26.0497 17.5933 25.5643V18.42Z" fill="#869DBD" fill-opacity="0.75"/>
<path d="M62.0004 26.0974C62.0004 25.7211 61.8064 25.6073 61.8064 25.6073H61.5149C61.0295 25.6073 60.5452 25.1219 60.5452 24.6365V16.1056C60.5452 16.1056 60.5267 15.8548 60.2584 15.8548H59.5198C59.3746 15.8548 59.2632 15.9767 59.2632 15.9767L58.2342 17.3203C58.1135 17.4782 57.9753 17.3215 57.9753 17.3215V17.3226C57.2866 16.5109 56.13 15.5145 54.0431 15.5145C50.9134 15.5145 47.93 17.7953 47.93 21.9678C47.93 25.8733 50.5011 28.1784 53.6552 28.1784C55.4506 28.1784 56.591 27.4259 57.4887 26.2611V27.7035C57.4887 27.7035 57.5003 28.0333 57.8708 28.1146C58.2041 28.1877 58.4595 28.0809 58.4595 28.0809L61.8076 26.6502C61.8053 26.6513 62.0004 26.4748 62.0004 26.0974ZM54.2843 26.5783C52.1254 26.5783 51.2277 24.4438 51.2277 21.8472C51.2277 19.2517 52.1254 17.1172 54.2843 17.1172C56.4431 17.1172 57.3408 19.2517 57.3408 21.8472C57.342 24.4438 56.4443 26.5783 54.2843 26.5783Z" fill="#869DBD" fill-opacity="0.75"/>
<path fill-rule="evenodd" clip-rule="evenodd" d="M14.5066 5.5715C14.5089 4.27781 15.0942 3.12348 16.0093 2.3489C16.9221 3.12697 17.5016 4.28362 17.4993 5.57731C17.497 6.87099 16.9128 8.02532 15.9966 8.79991C15.0838 8.02184 14.5043 6.86518 14.5066 5.5715ZM19.0554 2.26645C18.678 3.17226 18.7488 4.15239 19.1634 4.96298C20.0309 4.68543 20.7753 4.04555 21.1527 3.13974C21.5302 2.23393 21.4593 1.25379 21.0447 0.443208C20.1784 0.719596 19.4329 1.36063 19.0554 2.26645ZM10.852 3.11768C11.2259 4.02465 11.968 4.66801 12.8343 4.94788C13.2524 4.13846 13.3267 3.15948 12.9528 2.25135C12.5789 1.34437 11.8368 0.701015 10.9704 0.421143C10.5524 1.23057 10.4781 2.20954 10.852 3.11768ZM5.65284 9.51991C6.55866 9.89733 7.5388 9.8265 8.34939 9.41191C8.07184 8.54442 7.43196 7.80003 6.52614 7.42261C5.62033 7.04519 4.64019 7.11602 3.8296 7.52945C4.10715 8.39694 4.74703 9.14249 5.65284 9.51991ZM25.4589 7.46558C24.5519 7.83951 23.9085 8.58158 23.6286 9.44791C24.4381 9.86598 25.417 9.9403 26.3252 9.56637C27.2322 9.19243 27.8755 8.45036 28.1554 7.58403C27.346 7.16596 26.3658 7.09164 25.4589 7.46558ZM23.0039 11.1202C21.7102 11.1179 20.5535 11.6973 19.7754 12.6113C20.55 13.5276 21.7044 14.1117 22.9981 14.114C24.2917 14.1163 25.4484 13.5368 26.2265 12.6229C25.453 11.7066 24.2976 11.1225 23.0039 11.1202ZM19.9043 6.58647C18.9881 7.49925 18.5793 8.72791 18.6757 9.92288C19.8707 10.0228 21.1005 9.61978 22.0179 8.707C22.9342 7.79422 23.343 6.56557 23.2466 5.37059C22.0504 5.26956 20.8218 5.67369 19.9043 6.58647ZM8.99043 11.1202C7.69674 11.1225 6.5424 11.7066 5.76781 12.6229C6.54473 13.5368 7.70254 14.1163 8.99623 14.114C10.2899 14.1117 11.4443 13.5276 12.2188 12.6113C11.4408 11.6973 10.2841 11.1179 8.99043 11.1202ZM12.0899 6.58647C11.1737 5.67369 9.94386 5.27072 8.74771 5.37059C8.65133 6.56557 9.06011 7.79422 9.97637 8.707C10.8926 9.61978 12.1236 10.0228 13.3186 9.92288C13.415 8.72675 13.0062 7.49925 12.0899 6.58647Z" fill="#869DBD" fill-opacity="0.75"/>
</g>
<defs>
<clipPath id="clip0_1_182">
<rect width="61.0741" height="33.1574" fill="white" transform="translate(0.925903 0.421387)"/>
</clipPath>
</defs>
</svg>
