<svg width="115" height="24" viewBox="0 0 115 24" fill="none" xmlns="http://www.w3.org/2000/svg">
<g clip-path="url(#clip0_1_174)">
<path d="M32.1283 5.83562C31.726 5.83562 31.4387 6.12102 31.4387 6.52056V19.8959C30.4616 20.0862 29.3696 20.2955 28.2967 20.2955C25.9402 20.2955 25.1548 19.4203 25.1548 16.8898V6.53959C25.1548 6.14004 24.8674 5.85465 24.5608 5.85465H21.0166V16.8708C21.0166 22.0459 23.7754 23.7011 28.1818 23.7011C31.726 23.7011 35.2511 22.7308 35.5577 22.6357V5.85465H32.1283V5.83562ZM86.2695 23.4919C86.5569 23.4919 86.9592 23.2065 86.9592 22.8069V9.33643C87.9363 9.14617 89.0283 8.93688 90.1011 8.93688C92.4576 8.93688 93.2431 9.81208 93.2431 12.3426V22.7879C93.2431 23.1874 93.5305 23.4728 93.837 23.4728H97.3813V12.3426C97.3813 7.16745 94.6225 5.51218 90.2161 5.51218C86.6718 5.51218 83.1467 6.48251 82.8402 6.57764V23.4538H86.2695V23.4919ZM72.1116 5.5312C67.4944 5.5312 64.6399 7.96655 64.6399 13.3319V15.9575C64.6399 21.8176 67.7818 23.7582 71.1153 23.7582C72.7821 23.7582 74.5447 22.5786 75.0428 21.9127V22.9782C75.0428 23.2635 75.3301 23.568 75.6367 23.568C75.6367 23.568 79.066 23.568 79.1809 23.568V6.50154C79.2767 6.52056 75.8474 5.5312 72.1116 5.5312ZM75.1577 19.192C74.3722 19.8769 73.7783 20.2574 72.1116 20.2574C69.7551 20.3526 68.778 18.8875 68.778 15.8624V13.427C68.778 10.0214 70.0616 9.03201 72.1116 9.03201C73.7783 9.03201 74.7554 9.12714 75.1577 9.22227V19.192ZM107.784 5.5312C103.167 5.5312 100.312 7.96655 100.312 13.3319V15.9575C100.312 21.8176 103.454 23.7582 106.903 23.7582C108.57 23.7582 110.332 22.5786 110.83 21.9127V22.9782C110.83 23.2635 111.118 23.568 111.424 23.568C111.424 23.568 114.854 23.568 114.969 23.568V6.50154C114.949 6.52056 111.52 5.5312 107.784 5.5312ZM110.83 19.192C110.045 19.8769 109.451 20.2574 107.784 20.2574C105.428 20.2574 104.451 18.8875 104.451 15.8624V13.427C104.451 9.90721 105.734 9.03201 107.784 9.03201C109.451 9.03201 110.428 9.12714 110.83 9.22227V19.192ZM0 23.4919C0.593905 23.4919 3.73585 23.4919 3.73585 23.4919C4.02323 23.4919 4.32976 23.2065 4.32976 22.9021V13.1417H11.2076C12.3954 13.1417 13.1809 14.0169 13.1809 14.9872V22.883C13.1809 23.1684 13.4682 23.4728 13.7748 23.4728C13.7748 23.4728 17.319 23.4728 17.5106 23.4728C17.5106 23.4728 17.5106 0.451231 17.5106 0.241943H13.7556C13.4682 0.241943 13.1617 0.527336 13.1617 0.831754V9.62182H6.09232C5.11525 9.62182 4.42555 8.84175 4.42555 7.96655V0.850776C4.32976 0.660515 4.13818 0.260971 3.73585 0.260971H0C0 0.470258 0 23.4919 0 23.4919ZM55.3098 5.5312C53.3365 5.5312 51.4782 6.31128 50.5969 6.90109C49.3133 5.93075 47.5507 5.5312 45.3858 5.5312C42.1481 5.5312 39.3893 6.50154 39.0062 6.71082V23.587H42.5504C42.9527 23.587 43.1443 23.3016 43.1443 22.9021V9.33643C44.0256 9.14617 44.7153 9.05103 45.3092 9.05103C47.7615 9.05103 48.3554 10.0214 48.3554 12.4567V22.9021C48.3554 23.1874 48.5469 23.587 48.9493 23.587H51.8996C52.302 23.587 52.4935 23.3016 52.4935 22.9021V9.83111C53.1832 9.33643 54.0645 9.05103 54.9458 9.05103C56.8041 9.05103 57.5896 9.92624 57.5896 12.1713V22.9021C57.5896 23.1874 57.7812 23.587 58.1835 23.587C58.1835 23.587 61.4213 23.587 61.7278 23.587V11.5815C61.8044 7.11037 58.9499 5.5312 55.3098 5.5312Z" fill="#869DBD" fill-opacity="0.75"/>
</g>
<defs>
<clipPath id="clip0_1_174">
<rect width="114.969" height="23.5163" fill="white" transform="translate(0 0.241943)"/>
</clipPath>
</defs>
</svg>
