<svg width="181" height="78" viewBox="0 0 181 78" fill="none" xmlns="http://www.w3.org/2000/svg">
<rect x="0.935059" width="180" height="78" rx="10" fill="#F6F5F8"/>
<path d="M36.835 56.1545C38.0582 56.5756 39.3415 56.7961 40.6449 56.7761C46.3797 56.7761 50.3701 52.6253 50.3701 44.7248V21.1638L52.5557 20.1211V45.1259C52.5557 53.1868 48.405 57.8789 42.5097 57.8789C40.4644 57.8789 38.4993 57.2774 36.835 56.1545ZM34.3285 53.7482C35.6519 54.1894 36.9754 54.4701 38.1384 54.4701C42.9508 54.4701 46.1591 51.4422 46.1591 44.6246V22.9685L48.3047 21.9458V44.805C48.3047 51.9435 44.6753 55.613 39.6423 55.613C37.7975 55.613 35.9126 54.9313 34.3285 53.7482ZM32.8246 51.6227C33.8472 51.9636 34.9301 52.1441 36.0129 52.1842C39.7626 52.1842 42.0685 50.1389 42.0685 44.7449V24.7731L44.174 23.7505V44.404C44.174 50.4597 41.4068 53.1868 37.4365 53.1868C35.7522 53.2068 34.128 52.6454 32.8246 51.6227ZM40.0634 45.3264V25.6153L30.7793 29.8062V45.8076C30.7793 48.8555 32.7043 50.9008 35.5316 50.9008C38.3589 50.9008 40.0634 48.8154 40.0634 45.3264ZM64.4866 25.5752V32.9142C64.4866 35.6213 66.0908 37.7468 69.1587 37.7468C71.7855 37.7468 73.7707 35.8017 73.7707 32.8541V25.7557C73.7506 24.9737 74.3522 24.312 75.1342 24.2919H75.1543L75.435 24.2718V23.57H70.8231V24.2718L71.1238 24.2919C71.9059 24.312 72.5275 24.9536 72.5074 25.7356V25.7557V32.6335C72.5074 34.8793 71.3444 36.2429 69.5197 36.2429C67.6949 36.2429 66.5921 34.7991 66.5921 32.6135V25.5552C66.5921 24.7932 67.0132 24.332 67.8754 24.2919L68.1561 24.2718V23.57H62.9025V24.2718L63.2033 24.2919C64.0655 24.3721 64.4866 24.7932 64.4866 25.5752ZM70.7228 41.2559L71.0236 41.2759C71.7655 41.316 72.3069 41.6168 72.3069 42.4389V46.7501H67.1134V42.4389C67.1134 41.5967 67.6749 41.3361 68.3968 41.2759L68.6775 41.2559V40.554H63.4239V41.2559L63.7247 41.2759C64.4666 41.316 65.008 41.6168 65.008 42.4389V52.5451C65.008 53.3873 64.4465 53.668 63.7247 53.7081L63.4239 53.7282V54.43H68.6775V53.7282L68.3968 53.7081C67.6548 53.648 67.1134 53.3672 67.1134 52.5451V47.8329H72.2868V52.5451C72.2868 53.3873 71.7254 53.668 71.0035 53.7081L70.7027 53.7282V54.43H75.9564V53.7282L75.6756 53.7081C74.9538 53.648 74.3923 53.3672 74.3923 52.5451V42.4389C74.3923 41.5967 74.9538 41.3361 75.6756 41.2759L75.9564 41.2559V40.554H70.7228V41.2559ZM75.435 27.6606V28.3223L75.836 28.3424C76.4376 28.3825 76.8186 28.6833 76.8186 29.5054V35.6012C76.8186 36.4233 76.3975 36.7241 75.7358 36.7642L75.435 36.7843V37.466H80.1272V36.7843L79.8464 36.7642C79.1647 36.7241 78.7636 36.4233 78.7636 35.6012V32.3528C78.8037 29.9666 79.8264 28.5429 81.0495 28.5429C81.9719 28.5429 82.5935 29.1846 82.5935 30.4077V35.5812C82.5935 36.4033 82.1725 36.7041 81.5107 36.7442L81.21 36.7642V37.446H85.9021V36.7642L85.6214 36.7442C84.9396 36.7041 84.5386 36.4033 84.5386 35.5812V30.1671C84.5386 28.6231 83.5961 27.3398 81.7113 27.3398C80.3878 27.3398 79.2248 28.1419 78.7837 29.5455V27.3799L75.435 27.6606ZM102.525 37.6666C104.53 37.6666 105.653 36.303 106.114 34.759L105.252 34.5184C104.851 35.5811 104.169 36.4233 102.786 36.4233C101.182 36.4233 100.099 34.8994 100.099 32.4731H106.255V31.8916C106.255 29.345 104.751 27.2796 102.325 27.2796C99.738 27.2796 98.0135 29.7661 98.0135 32.4731C98.0135 35.1801 99.6778 37.6666 102.525 37.6666ZM102.305 28.4025C103.387 28.4025 104.089 29.4252 104.169 31.4906H100.119C100.319 29.5856 101.122 28.4025 102.305 28.4025ZM92.7799 35.2403C92.7799 36.7843 93.7023 37.6666 95.2062 37.6666C96.5898 37.6666 97.5122 36.6439 97.9132 35.2002L97.1914 34.9996C96.9106 35.8418 96.4494 36.3431 95.8278 36.3431C94.9857 36.3431 94.725 35.7416 94.725 35.0197V28.6031H97.432V27.5804H94.725V24.5325H93.7424C93.3615 26.8385 92.1984 27.6606 90.9753 27.9213V28.6231H92.8L92.7799 35.2403ZM88.6292 25.7958C89.3511 25.7757 89.9125 25.1541 89.8925 24.4323C89.8724 23.7505 89.311 23.2091 88.6292 23.169C87.9274 23.169 87.3659 23.7505 87.3659 24.4523C87.3258 25.1942 87.8873 25.7757 88.6292 25.7958C88.6091 25.7958 88.6091 25.7958 88.6292 25.7958ZM87.7068 29.5054V35.6012C87.7068 36.4233 87.2857 36.7241 86.624 36.7642L86.3232 36.7843V37.466H91.0154V36.7843L90.7346 36.7642C90.0529 36.7241 89.6518 36.4233 89.6518 35.6012V27.4L86.223 27.6606V28.3223L86.7243 28.3424C87.3258 28.3424 87.7068 28.6632 87.7068 29.5054ZM111.308 37.6666C112.611 37.6666 113.634 36.9848 114.055 35.8418V37.466H117.364V36.8043L117.083 36.7843C116.401 36.7442 116 36.4434 116 35.6213V23.3294L112.631 23.6302V24.2919L113.073 24.312C113.674 24.332 114.055 24.6528 114.055 25.475V29.0442C113.614 27.9414 112.611 27.2796 111.308 27.2796C108.721 27.2796 107.237 29.7661 107.237 32.4731C107.237 35.1801 108.701 37.6666 111.308 37.6666ZM111.629 28.4025C113.093 28.4025 114.055 29.9867 114.055 32.453C114.055 34.9194 113.113 36.5035 111.629 36.5035C110.245 36.5035 109.323 34.9395 109.323 32.453C109.323 29.9666 110.245 28.4025 111.629 28.4025ZM140.784 44.2837C139.641 44.2837 138.639 45.0457 138.218 46.3892V44.3639L134.889 44.6246V45.2863L135.29 45.3064C135.892 45.3465 136.273 45.6472 136.273 46.4694V52.5652C136.273 53.4073 135.872 53.6881 135.19 53.7282L134.889 53.7482V54.43H139.581V53.7482L139.3 53.7282C138.619 53.6881 138.218 53.3873 138.218 52.5652V49.2365C138.258 46.7701 139.321 45.2061 140.644 45.2061C140.885 45.186 141.125 45.2863 141.306 45.4668C140.965 45.6472 140.744 46.0082 140.744 46.3892C140.744 46.9707 141.205 47.4319 141.787 47.4319C142.368 47.4319 142.83 46.9506 142.83 46.2889C142.83 45.0657 141.887 44.2837 140.784 44.2837ZM147.161 44.2436C144.574 44.2436 142.85 46.71 142.85 49.4371C142.85 52.1641 144.514 54.6305 147.361 54.6305C149.367 54.6305 150.489 53.267 150.951 51.723L150.088 51.4823C149.687 52.5451 149.006 53.3873 147.622 53.3873C146.018 53.3873 144.935 51.8633 144.935 49.4371H151.091V48.8555C151.091 46.3089 149.587 44.2436 147.161 44.2436ZM144.955 48.4545C145.156 46.5295 145.938 45.3665 147.141 45.3665C148.224 45.3665 148.925 46.3892 149.006 48.4545H144.955ZM133.205 52.7857V47.6123C133.205 45.4868 131.881 44.2436 129.635 44.2436C127.71 44.2436 126.006 45.5069 126.006 46.9506C125.986 47.5321 126.447 48.0134 127.029 48.0134C127.61 48.0134 128.091 47.5722 128.091 46.9907C128.091 46.6097 127.891 46.2488 127.55 46.0683C127.911 45.567 128.533 45.2662 129.315 45.2662C130.538 45.2662 131.26 46.1686 131.26 47.6925V48.1537L128.332 49.3769C126.367 50.179 125.705 50.9008 125.705 52.1842C125.705 53.668 126.768 54.6105 128.452 54.6105C129.696 54.6105 130.798 53.8284 131.24 52.6654V52.9662C131.24 53.9888 131.961 54.5904 133.145 54.5904C133.566 54.5904 133.987 54.5302 134.388 54.4099V53.7482C133.566 53.8485 133.205 53.5276 133.205 52.7857ZM131.26 50.5399C131.159 52.2844 130.297 53.4474 129.074 53.4474C128.212 53.4474 127.65 52.8459 127.65 51.9435C127.65 51.1415 128.091 50.4998 128.914 50.1389L131.26 49.0962V50.5399ZM105.393 51.9636C105.112 52.7857 104.671 53.3071 104.029 53.3071C103.187 53.3071 102.926 52.7055 102.926 51.9836V45.567H105.633V44.5444H102.926V41.4965H101.944C101.563 43.8025 100.4 44.6246 99.1765 44.8853V45.5871H101.001V52.2042C101.001 53.7482 101.924 54.6305 103.428 54.6305C104.811 54.6305 105.734 53.6079 106.135 52.1641L105.393 51.9636ZM92.82 52.7857V47.6123C92.82 45.4868 91.4966 44.2436 89.2508 44.2436C87.3258 44.2436 85.6214 45.5069 85.6214 46.9506C85.6013 47.5321 86.0625 48.0134 86.644 48.0134C87.2256 48.0134 87.7068 47.5722 87.7068 46.9907C87.7068 46.6097 87.5063 46.2488 87.1654 46.0683C87.5263 45.567 88.1479 45.2662 88.93 45.2662C90.1531 45.2662 90.875 46.1686 90.875 47.6925V48.1537L87.9474 49.3769C85.9823 50.179 85.3206 50.9008 85.3206 52.1842C85.3206 53.668 86.3834 54.6105 88.0677 54.6105C89.311 54.6105 90.4138 53.8284 90.855 52.6654V52.9662C90.855 53.9888 91.5768 54.5904 92.7599 54.5904C93.181 54.5904 93.6021 54.5302 94.0031 54.4099V53.7482C93.201 53.8485 92.82 53.5276 92.82 52.7857ZM90.8951 50.5399C90.7948 52.2844 89.9326 53.4474 88.7094 53.4474C87.8472 53.4474 87.2857 52.8459 87.2857 51.9435C87.2857 51.1415 87.7269 50.4998 88.549 50.1389L90.8951 49.0962V50.5399ZM121.775 53.3672C120.171 53.3672 119.088 51.8433 119.088 49.417C119.088 46.9506 120.151 45.3866 121.755 45.3866C122.477 45.3866 123.018 45.6272 123.359 46.0683C123.058 46.2688 122.858 46.6097 122.858 46.9707C122.858 47.5522 123.319 48.0134 123.901 48.0134C124.502 48.0134 124.943 47.5321 124.943 46.8704C124.943 45.6873 123.76 44.2235 121.635 44.2235C118.687 44.2235 116.983 46.6899 116.983 49.417C116.983 52.124 118.647 54.6105 121.494 54.6105C123.459 54.6105 124.562 53.3071 125.003 51.8232L124.141 51.5626C123.78 52.5852 123.119 53.3672 121.775 53.3672ZM97.833 52.5652V40.3134L94.4643 40.5941V41.2559L94.9054 41.2759C95.507 41.296 95.888 41.6168 95.888 42.4389V52.5652C95.888 53.4073 95.4669 53.6881 94.8052 53.7282L94.5044 53.7482V54.43H99.1966V53.7683L98.9158 53.7482C98.2541 53.6881 97.833 53.3873 97.833 52.5652ZM115.198 52.5652V47.1511C115.198 45.6071 114.256 44.3238 112.371 44.3238C111.047 44.3238 109.884 45.1058 109.443 46.5295V40.3134L106.074 40.5941V41.2559L106.516 41.2759C107.117 41.296 107.498 41.6168 107.498 42.4389V52.5652C107.498 53.4073 107.077 53.6881 106.415 53.7282L106.114 53.7482V54.43H110.787V53.7683L110.506 53.7482C109.824 53.7081 109.423 53.4073 109.423 52.5852V49.3368C109.463 46.9707 110.486 45.5269 111.709 45.5269C112.631 45.5269 113.253 46.1686 113.253 47.3918V52.5852C113.253 53.4274 112.832 53.7081 112.17 53.7482L111.869 53.7683V54.45H116.562V53.7683L116.281 53.7482C115.599 53.6881 115.198 53.3873 115.198 52.5652ZM80.6686 44.2436C78.0819 44.2436 76.3574 46.73 76.3574 49.4371C76.3574 52.1441 78.0217 54.6305 80.8691 54.6305C82.8743 54.6305 83.9972 53.267 84.4584 51.723L83.5961 51.4823C83.1951 52.5451 82.5133 53.3873 81.1298 53.3873C79.5256 53.3873 78.4428 51.8633 78.4428 49.4371H84.5987V48.8555C84.5987 46.3089 83.0748 44.2436 80.6686 44.2436ZM78.4628 48.4545C78.6634 46.5295 79.4454 45.3665 80.6485 45.3665C81.7313 45.3665 82.4331 46.3892 82.5133 48.4545H78.4628Z" fill="#212827"/>
</svg>
