<svg xmlns="http://www.w3.org/2000/svg" width="31" height="32" fill="none"><path fill="#000" d="M7.266 27.375H4.422a.61.61 0 0 1-.61-.61V7.673a.61.61 0 0 1 .61-.61h2.844a.61.61 0 0 1 .609.61v19.094a.61.61 0 0 1-.61.609m7.922-13.812v-2.641a.61.61 0 0 0-.61-.61H9.297a.61.61 0 0 0-.61.61v2.64zm-6.5 10.562v2.64a.61.61 0 0 0 .609.61h5.281a.61.61 0 0 0 .61-.61v-2.64zm0-8.937h6.5V22.5h-6.5zm11.578 12.187h-3.657a.61.61 0 0 1-.609-.61V5.236a.61.61 0 0 1 .61-.61h3.656a.61.61 0 0 1 .609.61v21.53a.61.61 0 0 1-.61.61m1.472-19.261 1.524 18.679a.61.61 0 0 0 .683.554l3.664-.457a.61.61 0 0 0 .532-.655L26.613 7.632a.61.61 0 0 0-.67-.556l-3.663.382a.61.61 0 0 0-.542.656"></path></svg>