<svg xmlns="http://www.w3.org/2000/svg" fill="none" viewBox="0 0 25 24" class="h-5 w-5 text-secondary"><g fill="currentColor" fill-rule="evenodd" clip-path="url(#edit-pencil_svg__a)" clip-rule="evenodd"><path d="M3.9 6.879A3 3 0 0 1 6.021 6h3a1 1 0 1 1 0 2h-3a1 1 0 0 0-1 1v9a1 1 0 0 0 1 1h9a1 1 0 0 0 1-1v-3a1 1 0 1 1 2 0v3a3 3 0 0 1-3 3h-9a3 3 0 0 1-3-3V9a3 3 0 0 1 .88-2.121"></path><path d="M16.814 2.793a3.121 3.121 0 1 1 4.415 4.414l-8.5 8.5a1 1 0 0 1-.707.293h-3a1 1 0 0 1-1-1v-3a1 1 0 0 1 .292-.707zm2.207 1.086c-.297 0-.582.118-.792.328l-8.207 8.207V14h1.585l8.207-8.207a1.121 1.121 0 0 0-.793-1.914"></path><path d="M15.314 4.293a1 1 0 0 1 1.415 0l3 3a1 1 0 0 1-1.415 1.414l-3-3a1 1 0 0 1 0-1.414"></path></g><defs><clipPath id="edit-pencil_svg__a"><path fill="#fff" d="M.021 0h24v24h-24z"></path></clipPath></defs></svg>