<svg xmlns="http://www.w3.org/2000/svg" width="23" height="26" fill="none"><path fill="#000" d="M19.008 21q-2.95 0-5.832-1.212a17.5 17.5 0 0 1-5.241-3.432q-2.361-2.222-3.648-4.934Q3.002 8.712 3 5.933q0-.4.283-.666A1 1 0 0 1 3.992 5h3.825q.33 0 .59.212a.8.8 0 0 1 .307.5l.614 3.11q.046.356-.024.6a.9.9 0 0 1-.26.422l-2.29 2.178a10.7 10.7 0 0 0 1.121 1.589q.65.765 1.43 1.478.731.69 1.534 1.278.803.59 1.7 1.077l2.22-2.088q.212-.201.555-.3.342-.101.672-.056l3.258.622q.33.09.544.323.212.234.212.522v3.6a.88.88 0 0 1-.283.666 1 1 0 0 1-.709.267"></path></svg>