<svg xmlns="http://www.w3.org/2000/svg" fill="none" viewBox="0 0 36 36" class="w-7"><path fill="currentColor" d="M18 3.37a15 15 0 0 0-4.743 29.231c.75.132 1.03-.318 1.03-.712 0-.356-.018-1.538-.018-2.793-3.769.693-4.744-.92-5.044-1.763a5.45 5.45 0 0 0-1.537-2.12c-.526-.28-1.275-.974-.02-.992a3 3 0 0 1 2.307 1.537 3.207 3.207 0 0 0 4.368 1.238 3.16 3.16 0 0 1 .957-2.007c-3.338-.375-6.825-1.668-6.825-7.406a5.84 5.84 0 0 1 1.537-4.032 5.4 5.4 0 0 1 .15-3.975s1.256-.393 4.125 1.538a14.14 14.14 0 0 1 7.5 0c2.869-1.95 4.126-1.538 4.126-1.538a5.4 5.4 0 0 1 .15 3.975 5.8 5.8 0 0 1 1.537 4.032c0 5.756-3.507 7.03-6.844 7.406a3.55 3.55 0 0 1 1.012 2.775c0 2.007-.018 3.62-.018 4.125 0 .394.28.862 1.03.712A15.007 15.007 0 0 0 18 3.371"></path></svg>