<svg xmlns="http://www.w3.org/2000/svg" width="26" height="26" fill="none"><path fill="#FFC107" d="M23.624 10.878h-.873v-.045h-9.75v4.334h6.123A6.497 6.497 0 0 1 6.5 13a6.5 6.5 0 0 1 6.5-6.5c1.657 0 3.165.625 4.313 1.646l3.064-3.064A10.78 10.78 0 0 0 13 2.167C7.02 2.167 2.168 7.017 2.168 13s4.85 10.833 10.833 10.833S23.835 18.983 23.835 13c0-.726-.075-1.435-.211-2.122"></path><path fill="#FF3D00" d="m3.416 7.958 3.56 2.61A6.5 6.5 0 0 1 13 6.5c1.657 0 3.165.625 4.313 1.646l3.064-3.064A10.78 10.78 0 0 0 13 2.167c-4.16 0-7.77 2.349-9.584 5.79"></path><path fill="#4CAF50" d="M13 23.833c2.798 0 5.34-1.07 7.263-2.812l-3.353-2.837A6.45 6.45 0 0 1 13 19.5a6.5 6.5 0 0 1-6.112-4.304l-3.533 2.722C5.148 21.426 8.79 23.833 13 23.833"></path><path fill="#1976D2" d="M23.623 10.878h-.873v-.045H13v4.334h6.122a6.5 6.5 0 0 1-2.213 3.017h.001l3.353 2.836c-.237.216 3.57-2.603 3.57-8.02 0-.726-.074-1.435-.21-2.122"></path></svg>