<svg xmlns="http://www.w3.org/2000/svg" width="29" height="28" fill="none"><path fill="#F437AD" d="M14.905 10.967a3.02 3.02 0 0 0-3.021 3.023 3.01 3.01 0 0 0 3.02 3.023 3.01 3.01 0 0 0 3.022-3.023 3.01 3.01 0 0 0-3.021-3.023m7.05-2.312a2.8 2.8 0 0 0-.672-1.047 2.65 2.65 0 0 0-1.047-.672c-.316-.119-.79-.277-1.678-.316-.948-.04-1.244-.06-3.653-.06-2.41 0-2.705 0-3.653.06-.889.04-1.363.177-1.679.316-.414.158-.73.355-1.046.672a2.66 2.66 0 0 0-.671 1.047c-.119.316-.277.79-.316 1.68-.04.948-.06 1.244-.06 3.655s0 2.707.06 3.656c.04.889.197 1.363.316 1.68.158.414.355.73.67 1.047.317.316.613.513 1.047.671.316.119.79.277 1.679.317.948.04 1.244.059 3.653.059s2.705 0 3.653-.06c.889-.039 1.362-.177 1.678-.316.415-.158.731-.355 1.047-.671s.513-.613.671-1.048c.119-.316.277-.79.316-1.68.04-.948.06-1.244.06-3.655s0-2.707-.06-3.655c-.04-.89-.177-1.364-.316-1.68m-7.05 9.999a4.637 4.637 0 0 1-4.64-4.644 4.637 4.637 0 0 1 4.64-4.644 4.637 4.637 0 0 1 4.64 4.644 4.637 4.637 0 0 1-4.64 4.644m4.838-8.398a1.096 1.096 0 0 1-1.086-1.087c0-.593.493-1.087 1.086-1.087.592 0 1.086.494 1.086 1.087 0 .592-.494 1.086-1.086 1.086M14.905 0c-9.616 0-14 4.841-14 14.445S5.289 28 14.905 28s14-3.932 14-13.555C28.905 4.82 24.52 0 14.905 0m8.984 17.745c-.04.968-.197 1.62-.414 2.193-.237.593-.533 1.107-1.047 1.6a4.6 4.6 0 0 1-1.6 1.048c-.572.217-1.223.375-2.191.415s-1.264.059-3.732.059-2.765 0-3.732-.06c-.968-.039-1.62-.197-2.192-.414-.592-.237-1.106-.534-1.6-1.047a4.8 4.8 0 0 1-1.046-1.601c-.217-.573-.375-1.225-.415-2.193-.04-.969-.059-1.265-.059-3.735s0-2.767.06-3.735c.039-.968.197-1.62.414-2.193.237-.593.533-1.107 1.047-1.6a4.8 4.8 0 0 1 1.6-1.048c.572-.217 1.243-.375 2.19-.415.968-.04 1.265-.06 3.733-.06s2.764 0 3.732.06c.968.04 1.62.198 2.192.415.592.237 1.105.534 1.6 1.047.493.514.809 1.008 1.046 1.6.217.574.375 1.226.414 2.194.04.968.06 1.265.06 3.735s0 2.766-.06 3.734"></path></svg>