<svg xmlns="http://www.w3.org/2000/svg" width="22" height="26" fill="none"><g clip-path="url(#mail_svg__a)"><path fill="#000" d="m.24 5.94 9.615 9.615a1.625 1.625 0 0 0 2.175.112l.124-.112 9.608-9.609q.047.179.063.365l.008.19v13a2.166 2.166 0 0 1-2.004 2.16l-.162.006H2.333a2.167 2.167 0 0 1-2.161-2.004l-.005-.162v-13q0-.195.032-.38zm19.427-1.606q.197-.001.384.034l.184.042-9.23 9.23-9.233-9.232a2 2 0 0 1 .368-.065l.193-.009z"></path></g><defs><clipPath id="mail_svg__a"><path fill="#fff" d="M0 0h22v26H0z"></path></clipPath></defs></svg>