<svg xmlns="http://www.w3.org/2000/svg" width="28" height="28" fill="none"><path fill="#0173B4" d="M27.581 10.315c-.876-5.513-3.792-8.813-8.936-9.9Q16.758 0 14.415 0a21 21 0 0 0-3.678.296C4.01 1.482.905 6.205.905 14.445.905 24.068 5.135 28 14.415 28s13.147-3.616 13.452-12.41c.038-.375.038-.75.038-1.145 0-1.502-.095-2.866-.324-4.13m-12.442.099.133 1.264h.057a3.13 3.13 0 0 1 2.706-1.462c1.81 0 3.144 1.245 3.144 3.932v5.395h-2.725v-5.059c0-1.185-.4-1.976-1.391-1.976-.743 0-1.2.534-1.391 1.067-.076.178-.095.435-.095.712v5.256h-2.725v-6.225a61 61 0 0 0-.076-2.904zm-6.67 0h2.744v9.129H8.47zm2.82-2.53c0 .79-.552 1.423-1.467 1.423-.857 0-1.41-.632-1.41-1.423 0-.79.572-1.422 1.448-1.422.877 0 1.43.612 1.43 1.422"></path></svg>