<svg xmlns="http://www.w3.org/2000/svg" width="170" height="25" fill="none"><g fill="#000"><path d="M45.215 8.571c-.683-1.044-2.522-2.033-4.658-2.033-2.76 0-4.065 1.072-4.065 2.418 0 1.593 2.018 2.033 4.362 2.28 4.094.467 7.891 1.456 7.891 5.797 0 4.038-3.856 5.797-8.247 5.797-4.006 0-7.091-1.154-8.545-4.45l3.086-1.484c.86 2.005 3.145 2.884 5.518 2.884 2.314 0 4.51-.742 4.51-2.72 0-1.703-1.929-2.417-4.54-2.664-4.005-.44-7.714-1.429-7.714-5.495 0-3.736 3.976-5.275 7.596-5.302 3.056 0 6.23.797 7.713 3.599zM55.54 3.709v11.044l4.895-5.412h4.302v.192l-5.934 6.154 6.764 6.896v.247h-4.331L55.54 16.73v6.099h-3.62V3.709zM70.848 5.549c0 2.61-4.242 2.61-4.242 0s4.242-2.61 4.242 0m-3.916 3.736V22.83h3.59V9.285zM77.08 3.709v19.12h-3.56V3.71zM83.517 3.709v19.12h-3.56V3.71zM105.979 9.247l-6.735 8.324h-.771L91.887 9.22v13.928H88V4h4.48l6.468 8.242L105.415 4h4.451v19.148h-3.887zM123.51 8.929h3.442v13.489h-3.383l-.178-1.978c-.83 1.593-3.115 2.363-4.717 2.39-4.302.028-7.506-2.445-7.506-7.17 0-4.643 3.323-7.088 7.595-7.06 1.958 0 3.798.851 4.628 2.197zm-8.752 6.73c0 2.583 1.928 4.094 4.302 4.094 5.666 0 5.666-8.187 0-8.187-2.374.028-4.302 1.511-4.302 4.094M134.161 5.357v3.818h4.005v2.885h-4.034v5.824c0 1.291.771 1.923 1.898 1.923.564 0 1.217-.165 1.751-.412l1.008 2.857a8.6 8.6 0 0 1-2.996.577c-3.175.11-5.222-1.566-5.222-4.917V12.06h-2.729V9.203h2.729v-3.49zM153.06 20.686c-1.691 1.538-3.442 2.143-5.608 2.143-4.212 0-7.743-2.363-7.743-7.143s3.501-7.143 7.743-7.143c2.077 0 3.65.55 5.252 2.006l-2.285 2.225a4.64 4.64 0 0 0-2.937-1.072c-2.433 0-4.183 1.649-4.183 3.984 0 2.582 1.899 3.928 4.124 3.928 1.157 0 2.314-.302 3.204-1.126zM157.955 3.68v7.5c1.306-1.566 2.908-2.033 4.539-2.033 4.124 0 5.964 2.61 5.964 6.566v7.115h-3.59v-7.087c0-2.473-1.395-3.49-3.323-3.49-2.136 0-3.59 1.676-3.59 3.682v6.895h-3.59V3.68zM23.676 3.598l-6.468 5.99H9.405s-.03 0-.03.027v7.198s0 .027-.03.027H8.93c-3.916 0-7.357-2.967-7.387-6.62 0-1.841.801-3.49 2.106-4.671a7.4 7.4 0 0 1 5.044-1.95zm-5.637 5.99h-.831s-.03 0-.03.027v7.198s0 .027-.03.027H9.406l-6.468 5.962v.027h15.339c1.988 0 3.768-.742 5.044-1.95 1.305-1.21 2.106-2.858 2.106-4.67 0-3.655-3.441-6.622-7.387-6.622"></path></g></svg>