<svg width="54" height="54" viewBox="0 0 54 54" fill="none" xmlns="http://www.w3.org/2000/svg">
<rect width="54" height="54" rx="27" fill="#2DC29E"/>
<path d="M19.5094 21.5092H34.5094V23.3425H19.5094V21.5092ZM21.3844 17.8425H32.6344V19.6759H21.3844V17.8425ZM34.5 25.1667H19.5C19.0027 25.1667 18.5258 25.3598 18.1742 25.7037C17.8225 26.0475 17.625 26.5138 17.625 27V34.3334C17.625 34.8196 17.8225 35.2859 18.1742 35.6297C18.5258 35.9735 19.0027 36.1667 19.5 36.1667H34.5C34.9973 36.1667 35.4742 35.9735 35.8258 35.6297C36.1775 35.2859 36.375 34.8196 36.375 34.3334V27C36.375 26.5138 36.1775 26.0475 35.8258 25.7037C35.4742 25.3598 34.9973 25.1667 34.5 25.1667ZM25.4063 34.3334L22.3125 31.3634L23.625 30.08L25.4063 31.8217L30.375 26.9634L31.6875 28.2467L25.4063 34.3334Z" fill="white"/>
</svg>
