<svg xmlns="http://www.w3.org/2000/svg" width="223" height="12" fill="none" class="absolute bottom-0 right-0 w-[150px] sm:w-56"><path fill="#fff" d="M4.755 5.838c1.746 0 3.575-.06 5.321-.119.748 0 1.414-.06 2.162-.06l9.478-.357c3.824-.119 7.566-.298 11.39-.417 5.404-.238 10.808-.417 16.213-.655 1.247-.06 2.494-.06 3.741-.12 3.16-.119 6.319-.238 9.478-.297 3.16-.12 6.319-.239 9.478-.298 1.247-.06 2.494-.12 3.741-.12l15.049-.357c3.076-.06 6.152-.119 9.312-.238 1.247 0 2.411-.06 3.658-.06 4.822-.06 9.727-.119 14.55-.178 4.822-.06 9.561-.12 14.383-.179h13.219c4.906 0 9.728 0 14.633-.06h15.548c-7.483.06-15.049.12-22.532.239-3.159.06-6.235.06-9.395.119-1.33 0-2.743 0-4.073.06-4.573.059-9.063.178-13.636.238-5.237.119-10.475.178-15.713.298-.915 0-1.746.06-2.661.06-2.827.118-5.57.178-8.397.297l-16.96.536c-.832 0-1.663.06-2.495.12-2.744.119-5.57.297-8.314.416-4.989.239-9.894.477-14.882.715-1.33.06-2.744.179-4.074.239-3.16.178-6.319.357-9.478.595-3.991.239-8.065.477-12.056.715-5.57.358-11.224.715-16.794 1.073-1.33.06-2.66.178-4.074.238l-7.233.536c-.25 0-.5.12-.5.357 0 .18.25.358.5.358.914 0 1.746.06 2.66.06-.083.178-.166.357-.166.536 0 .655.748 1.25 1.746 1.25 6.9-.297 13.718-.655 20.619-.893 5.986-.179 11.972-.417 17.958-.596 6.568-.238 13.22-.476 19.788-.655 2.078-.06 4.157-.12 6.235-.238.582 0 1.164-.06 1.83-.06 10.641-.179 21.284-.417 31.926-.596 5.653-.119 11.39-.238 17.043-.297 2.079-.06 4.074-.06 6.153-.12l32.674-.357 13.968-.179c3.991-.06 7.981-.06 11.972-.178 3.326-.06 6.568-.18 9.894-.239 1.663-.06 3.326-.06 4.905-.119l11.224-.536c-.249.238-.249.596-.166.834.083.298.333.536.748.655.333.12.832.239 1.164.12a88 88 0 0 0 2.411-.715h-.083c.083 0 .083-.06.167-.06.083 0 .166-.06.166-.06h-.083c.415-.119.831-.238 1.33-.417.416-.119.914-.298 1.33-.417.499-.178.915-.357 1.414-.536s.831-.655.831-1.072c0-.238-.083-.417-.249-.656-.167-.238-.582-.536-.998-.595-.416-.06-.832-.12-1.247-.12h-.25c-.249 0-.582 0-.831.06-.665.06-1.247.12-1.912.12-.499 0-.998.059-1.58.059-1.413.06-2.744.119-4.157.238-.333 0-.748.06-1.081.06q.25-.18.25-.358c.083-.119.083-.238.083-.357 0-.06 0-.179.083-.238 0-.12 0-.239-.083-.298 0 0 .083 0 .083-.06.249-.119.499-.238.665-.476a.96.96 0 0 0 .249-.656c0-.238-.083-.417-.249-.655-.083-.06-.166-.179-.249-.238-.25-.18-.499-.239-.749-.298A7.3 7.3 0 0 0 209.115 0h-27.187c-8.563 0-17.043.06-25.607.12-6.402.059-12.804.118-19.206.118-2.826 0-5.736.06-8.563.12-6.402.119-12.804.178-19.206.297-1.829 0-3.658.06-5.487.06-1.081 0-2.078.06-3.159.06l-18.956.536c-1.913.06-3.825.119-5.82.178-1.081 0-2.162.06-3.243.12-6.318.238-12.554.476-18.873.714-3.242.12-6.485.239-9.727.417-5.57.239-11.141.477-16.628.775-4.823.238-9.645.417-14.467.596-.748.06-1.496.06-2.328.119-1.247.06-2.494.06-3.741.119-1.081.06-2.162.06-3.326.06-.083-.18-.416-.358-.665-.358-.748.06-1.413.12-2.162.179-.332 0-.665.119-.748.417s.166.596.499.655.582.12.915.179c.332.06.581.06.914.06.831.238 1.58.238 2.411.297m194.55-1.966h3.076c.083.18.249.298.416.417-.416 0-.832.06-1.164.06-.749 0-1.497.06-2.245.06-3.326.06-6.568.178-9.894.238-1.496.06-2.993.119-4.489.119-2.328 0-4.739.06-7.067.06l-16.13.178-31.344.358c-7.483.06-14.965.238-22.448.417-11.224.238-22.531.417-33.755.655-2.245.06-4.49.12-6.734.238-6.402.239-12.804.417-19.206.656-6.236.238-12.554.417-18.79.655-.582 0-1.164.06-1.746.06 1.663-.12 3.409-.18 5.072-.298 5.903-.298 11.806-.656 17.709-.953 2.078-.12 4.157-.239 6.152-.358 1.081-.06 2.162-.12 3.16-.12 6.152-.237 12.304-.535 18.457-.774 1.164-.06 2.41-.119 3.575-.178 1.746-.06 3.492-.12 5.155-.12l18.956-.536c1.413-.06 2.827-.06 4.157-.119h1.081c.997 0 1.995 0 2.91-.06 6.318-.118 12.72-.178 19.039-.297 2.91-.06 5.82-.12 8.73-.12l28.268-.178c9.893 0 19.538 0 29.099-.06"></path></svg>