<svg width="56" height="56" viewBox="0 0 56 56" fill="none" xmlns="http://www.w3.org/2000/svg">
<rect width="56" height="56" rx="15" fill="#FFDDF6"/>
<g clip-path="url(#clip0_89_605)">
<path d="M38.232 14H17.932C17.7133 16.0398 16.0453 17.7078 14 17.9211V38.2375C16.0453 38.5055 17.6094 40.0094 17.932 42H38.2867C38.4508 40.0094 40.0641 38.4016 42 38.1828V17.9211C40.0094 17.5984 38.4453 15.9906 38.232 14ZM36.2086 36.143C34.2234 36.143 35.1805 36.0336 33.1953 36.0336C31.2375 36.0336 32.0469 36.143 30.1273 36.143C29.8047 36.143 29.8594 35.6945 30.1273 35.607C31.3742 35.1914 31.3797 35.0492 31.4727 34.907C32.0414 34.0539 31.7953 30.368 31.7953 28.7273C31.7953 28.4375 31.4453 28.0273 31.0406 28.0273H24.9594C24.5547 28.0273 24.2047 28.4375 24.2047 28.7273C24.2047 30.368 23.9586 34.0539 24.5273 34.907C24.6203 35.0437 24.6258 35.1914 25.8727 35.607C26.1406 35.6945 26.2008 36.143 25.8727 36.143C23.9531 36.143 24.7625 36.0336 22.8047 36.0336C20.8195 36.0336 21.7766 36.143 19.7914 36.143C19.3594 36.143 19.4742 35.5523 19.7914 35.5523C20.3492 35.3664 20.5297 35.3609 20.9781 34.7977C21.3992 34.0922 21.4102 32.3695 21.4102 27.8086V22.2742C21.4102 21.0602 20.743 20.7266 19.8461 20.5023C19.3648 20.382 19.6273 19.857 19.9008 19.857C21.8969 19.857 21.0273 19.9664 23.0234 19.9664C24.8117 19.9664 23.9258 19.857 25.7141 19.857C25.8945 19.857 26.1789 20.3109 25.7688 20.4477C25.5008 20.5352 24.2594 20.65 24.2594 22.5969C24.2594 25.0906 24.2484 25.6484 24.3141 26.3594C24.3141 26.4305 24.4398 27.0594 25.0141 27.0594H30.9859C31.5602 27.0594 31.6859 26.4305 31.6859 26.3594C31.7516 25.6484 31.7406 25.0906 31.7406 22.5969C31.7406 20.65 30.4992 20.5352 30.2312 20.4477C29.8211 20.3109 30.1055 19.857 30.2859 19.857C32.0742 19.857 31.1883 19.9664 32.9766 19.9664C34.9727 19.9664 34.1031 19.857 36.0992 19.857C36.3672 19.857 36.6406 20.382 36.1539 20.5023C35.257 20.7266 34.5898 21.0656 34.5898 22.2742V27.8086C34.5898 32.3695 34.5953 34.0922 35.0219 34.7977C35.4703 35.3555 35.6453 35.3664 36.2086 35.5523C36.5258 35.5523 36.6352 36.143 36.2086 36.143Z" fill="black"/>
</g>
<defs>
<clipPath id="clip0_89_605">
<rect width="28" height="28" fill="white" transform="translate(14 14)"/>
</clipPath>
</defs>
</svg>
