<svg width="1440" height="852" viewBox="0 0 1440 852" fill="none" xmlns="http://www.w3.org/2000/svg">
<rect width="1440" height="852" fill="url(#paint0_linear_4296_30774)"/>
<path d="M720.4 1143.04C1123.79 1143.04 1450.8 806.127 1450.8 390.521C1450.8 -25.0848 1123.79 -362 720.4 -362C317.011 -362 -10 -25.0848 -10 390.521C-10 806.127 317.011 1143.04 720.4 1143.04Z" stroke="black" stroke-opacity="0.18" stroke-width="2.61292" stroke-miterlimit="10" style="mix-blend-mode:soft-light"/>
<path d="M720.399 1113.96C1108.2 1113.96 1422.57 790.067 1422.57 390.521C1422.57 -9.02365 1108.2 -332.919 720.399 -332.919C332.599 -332.919 18.2246 -9.02365 18.2246 390.521C18.2246 790.067 332.599 1113.96 720.399 1113.96Z" stroke="black" stroke-opacity="0.18" stroke-width="2.61292" stroke-miterlimit="10" style="mix-blend-mode:soft-light"/>
<path d="M720.402 1084.87C1092.61 1084.87 1394.34 774.001 1394.34 390.521C1394.34 7.0416 1092.61 -303.83 720.402 -303.83C348.195 -303.83 46.462 7.0416 46.462 390.521C46.462 774.001 348.195 1084.87 720.402 1084.87Z" stroke="black" stroke-opacity="0.18" stroke-width="2.61292" stroke-miterlimit="10" style="mix-blend-mode:soft-light"/>
<path d="M720.401 1055.79C1077.02 1055.79 1366.11 757.939 1366.11 390.52C1366.11 23.1017 1077.02 -274.75 720.401 -274.75C363.783 -274.75 74.6865 23.1017 74.6865 390.52C74.6865 757.939 363.783 1055.79 720.401 1055.79Z" stroke="black" stroke-opacity="0.18" stroke-width="2.61292" stroke-miterlimit="10" style="mix-blend-mode:soft-light"/>
<path d="M720.399 1026.71C1061.43 1026.71 1337.89 741.879 1337.89 390.521C1337.89 39.1629 1061.43 -245.669 720.399 -245.669C379.37 -245.669 102.911 39.1629 102.911 390.521C102.911 741.879 379.37 1026.71 720.399 1026.71Z" stroke="black" stroke-opacity="0.18" stroke-width="2.61292" stroke-miterlimit="10" style="mix-blend-mode:soft-light"/>
<path d="M720.402 997.63C1045.84 997.63 1309.66 725.818 1309.66 390.521C1309.66 55.2241 1045.84 -216.588 720.402 -216.588C394.961 -216.588 131.14 55.2241 131.14 390.521C131.14 725.818 394.961 997.63 720.402 997.63Z" stroke="black" stroke-opacity="0.18" stroke-width="2.61292" stroke-miterlimit="10" style="mix-blend-mode:soft-light"/>
<path d="M720.4 968.542C1030.25 968.542 1281.43 709.753 1281.43 390.522C1281.43 71.2903 1030.25 -187.498 720.4 -187.498C410.553 -187.498 159.372 71.2903 159.372 390.522C159.372 709.753 410.553 968.542 720.4 968.542Z" stroke="black" stroke-opacity="0.18" stroke-width="2.61292" stroke-miterlimit="10" style="mix-blend-mode:soft-light"/>
<path d="M720.399 939.46C1014.66 939.46 1253.2 693.692 1253.2 390.521C1253.2 87.3505 1014.66 -158.418 720.399 -158.418C426.141 -158.418 187.597 87.3505 187.597 390.521C187.597 693.692 426.141 939.46 720.399 939.46Z" stroke="black" stroke-opacity="0.18" stroke-width="2.61292" stroke-miterlimit="10" style="mix-blend-mode:soft-light"/>
<path d="M720.4 910.38C999.07 910.38 1224.98 677.631 1224.98 390.521C1224.98 103.412 999.07 -129.337 720.4 -129.337C441.73 -129.337 215.823 103.412 215.823 390.521C215.823 677.631 441.73 910.38 720.4 910.38Z" stroke="black" stroke-opacity="0.18" stroke-width="2.61292" stroke-miterlimit="10" style="mix-blend-mode:soft-light"/>
<path d="M720.398 881.299C983.48 881.299 1196.75 661.571 1196.75 390.522C1196.75 119.473 983.48 -100.256 720.398 -100.256C457.317 -100.256 244.048 119.473 244.048 390.522C244.048 661.571 457.317 881.299 720.398 881.299Z" stroke="black" stroke-opacity="0.18" stroke-width="2.61292" stroke-miterlimit="10" style="mix-blend-mode:soft-light"/>
<path d="M720.401 852.21C967.889 852.21 1168.52 645.505 1168.52 390.522C1168.52 135.538 967.889 -71.167 720.401 -71.167C472.913 -71.167 272.284 135.538 272.284 390.522C272.284 645.505 472.913 852.21 720.401 852.21Z" stroke="black" stroke-opacity="0.18" stroke-width="2.61292" stroke-miterlimit="10" style="mix-blend-mode:soft-light"/>
<path d="M720.4 823.129C952.299 823.129 1140.29 629.444 1140.29 390.521C1140.29 151.598 952.299 -42.0869 720.4 -42.0869C488.5 -42.0869 300.509 151.598 300.509 390.521C300.509 629.444 488.5 823.129 720.4 823.129Z" stroke="black" stroke-opacity="0.18" stroke-width="2.61292" stroke-miterlimit="10" style="mix-blend-mode:soft-light"/>
<path d="M720.398 794.048C936.709 794.048 1112.06 613.383 1112.06 390.521C1112.06 167.659 936.709 -13.0059 720.398 -13.0059C504.088 -13.0059 328.733 167.659 328.733 390.521C328.733 613.383 504.088 794.048 720.398 794.048Z" stroke="black" stroke-opacity="0.18" stroke-width="2.61292" stroke-miterlimit="10" style="mix-blend-mode:soft-light"/>
<path d="M720.401 764.968C921.123 764.968 1083.84 597.322 1083.84 390.521C1083.84 183.72 921.123 16.0752 720.401 16.0752C519.679 16.0752 356.962 183.72 356.962 390.521C356.962 597.322 519.679 764.968 720.401 764.968Z" stroke="black" stroke-opacity="0.18" stroke-width="2.61292" stroke-miterlimit="10" style="mix-blend-mode:soft-light"/>
<path d="M720.4 735.878C905.529 735.878 1055.61 581.257 1055.61 390.521C1055.61 199.786 905.529 45.1641 720.4 45.1641C535.271 45.1641 385.195 199.786 385.195 390.521C385.195 581.257 535.271 735.878 720.4 735.878Z" stroke="black" stroke-opacity="0.18" stroke-width="2.61292" stroke-miterlimit="10" style="mix-blend-mode:soft-light"/>
<path d="M720.401 706.798C889.941 706.798 1027.38 565.196 1027.38 390.521C1027.38 215.847 889.941 74.2451 720.401 74.2451C550.861 74.2451 413.422 215.847 413.422 390.521C413.422 565.196 550.861 706.798 720.401 706.798Z" stroke="black" stroke-opacity="0.18" stroke-width="2.61292" stroke-miterlimit="10" style="mix-blend-mode:soft-light"/>
<path d="M720.4 677.716C874.351 677.716 999.153 549.134 999.153 390.521C999.153 231.907 874.351 103.325 720.4 103.325C566.449 103.325 441.646 231.907 441.646 390.521C441.646 549.134 566.449 677.716 720.4 677.716Z" stroke="black" stroke-opacity="0.18" stroke-width="2.61292" stroke-miterlimit="10" style="mix-blend-mode:soft-light"/>
<path d="M720.4 648.636C858.763 648.636 970.928 533.074 970.928 390.521C970.928 247.968 858.763 132.406 720.4 132.406C582.038 132.406 469.873 247.968 469.873 390.521C469.873 533.074 582.038 648.636 720.4 648.636Z" stroke="black" stroke-opacity="0.18" stroke-width="2.61292" stroke-miterlimit="10" style="mix-blend-mode:soft-light"/>
<path d="M720.401 619.547C843.17 619.547 942.694 517.009 942.694 390.522C942.694 264.034 843.17 161.496 720.401 161.496C597.631 161.496 498.107 264.034 498.107 390.522C498.107 517.009 597.631 619.547 720.401 619.547Z" stroke="black" stroke-opacity="0.18" stroke-width="2.61292" stroke-miterlimit="10" style="mix-blend-mode:soft-light"/>
<path d="M720.398 590.466C827.579 590.466 914.466 500.948 914.466 390.521C914.466 280.095 827.579 190.576 720.398 190.576C613.218 190.576 526.331 280.095 526.331 390.521C526.331 500.948 613.218 590.466 720.398 590.466Z" stroke="black" stroke-opacity="0.18" stroke-width="2.61292" stroke-miterlimit="10" style="mix-blend-mode:soft-light"/>
<path d="M720.399 561.385C811.991 561.385 886.24 484.887 886.24 390.521C886.24 296.156 811.991 219.657 720.399 219.657C628.807 219.657 554.558 296.156 554.558 390.521C554.558 484.887 628.807 561.385 720.399 561.385Z" stroke="black" stroke-opacity="0.18" stroke-width="2.61292" stroke-miterlimit="10" style="mix-blend-mode:soft-light"/>
<path d="M720.398 532.305C796.401 532.305 858.013 468.826 858.013 390.522C858.013 312.217 796.401 248.738 720.398 248.738C644.395 248.738 582.782 312.217 582.782 390.522C582.782 468.826 644.395 532.305 720.398 532.305Z" stroke="black" stroke-opacity="0.18" stroke-width="2.61292" stroke-miterlimit="10" style="mix-blend-mode:soft-light"/>
<path d="M720.399 503.216C780.809 503.216 829.781 452.761 829.781 390.521C829.781 328.282 780.809 277.827 720.399 277.827C659.989 277.827 611.018 328.282 611.018 390.521C611.018 452.761 659.989 503.216 720.399 503.216Z" stroke="black" stroke-opacity="0.18" stroke-width="2.61292" stroke-miterlimit="10" style="mix-blend-mode:soft-light"/>
<path d="M720.4 474.135C765.221 474.135 801.555 436.7 801.555 390.522C801.555 344.343 765.221 306.908 720.4 306.908C675.579 306.908 639.244 344.343 639.244 390.522C639.244 436.7 675.579 474.135 720.4 474.135Z" stroke="black" stroke-opacity="0.18" stroke-width="2.61292" stroke-miterlimit="10" style="mix-blend-mode:soft-light"/>
<defs>
<linearGradient id="paint0_linear_4296_30774" x1="0" y1="852" x2="1435.58" y2="-7.38338" gradientUnits="userSpaceOnUse">
<stop stop-color="#7267EF"/>
<stop offset="0.583333" stop-color="#00BDAA"/>
</linearGradient>
</defs>
</svg>
