<svg width="56" height="56" viewBox="0 0 56 56" fill="none" xmlns="http://www.w3.org/2000/svg">
<rect width="56" height="56" rx="15" fill="#E0F8DE"/>
<path d="M27.9999 16.1212C29.5751 16.1212 31.0858 16.747 32.1997 17.8608C33.3135 18.9747 33.9393 20.4854 33.9393 22.0606C33.9393 23.6358 33.3135 25.1465 32.1997 26.2604C31.0858 27.3742 29.5751 28 27.9999 28C26.4247 28 24.9139 27.3742 23.8001 26.2604C22.6862 25.1465 22.0605 23.6358 22.0605 22.0606C22.0605 20.4854 22.6862 18.9747 23.8001 17.8608C24.9139 16.747 26.4247 16.1212 27.9999 16.1212ZM27.9999 30.9697C34.5629 30.9697 39.8787 33.6276 39.8787 36.9091V39.8788H16.1211V36.9091C16.1211 33.6276 21.4369 30.9697 27.9999 30.9697Z" fill="black"/>
</svg>
