<svg width="54" height="54" viewBox="0 0 54 54" fill="none" xmlns="http://www.w3.org/2000/svg">
<rect width="54" height="54" rx="27" fill="#2DC29E"/>
<path d="M24.3 31.3L25.0965 30.5L22.6778 28.1111L25.0965 25.7222L24.3 24.9222L21.0712 28.1111L24.3 31.3ZM29.7 31.3L32.9288 28.1111L29.7 24.9222L28.9035 25.7222L31.3223 28.1111L28.9035 30.5L29.7 31.3ZM19.8169 37C19.3174 37 18.8899 36.8241 18.5344 36.4722C18.1781 36.1211 18 35.6989 18 35.2056V21.0167C18 20.5233 18.1781 20.1011 18.5344 19.75C18.8899 19.3981 19.3174 19.2222 19.8169 19.2222H25.1044C25.0024 18.6556 25.14 18.1433 25.5173 17.6856C25.8945 17.2285 26.3925 17 27.0113 17C27.63 17 28.128 17.2285 28.5052 17.6856C28.8818 18.1433 29.0119 18.6556 28.8956 19.2222H34.1831C34.6826 19.2222 35.1101 19.3981 35.4656 19.75C35.8219 20.1011 36 20.5233 36 21.0167V35.2056C36 35.6989 35.8219 36.1211 35.4656 36.4722C35.1101 36.8241 34.6826 37 34.1831 37H19.8169ZM27 19.7133C27.2437 19.7133 27.4451 19.6348 27.6041 19.4778C27.7631 19.3207 27.843 19.1215 27.8438 18.88C27.8438 18.6393 27.7639 18.4404 27.6041 18.2833C27.4444 18.1263 27.243 18.0474 27 18.0467C26.7563 18.0467 26.5549 18.1256 26.3959 18.2833C26.2369 18.4411 26.157 18.64 26.1562 18.88C26.1562 19.1207 26.2361 19.32 26.3959 19.4778C26.5556 19.6356 26.757 19.7141 27 19.7133Z" fill="white"/>
</svg>
