<svg width="56" height="56" viewBox="0 0 56 56" fill="none" xmlns="http://www.w3.org/2000/svg">
<rect width="56" height="56" rx="15" fill="#C4BFFF"/>
<path d="M18.5938 40.25H15.5312C15.3572 40.25 15.1903 40.1809 15.0672 40.0578C14.9441 39.9347 14.875 39.7678 14.875 39.5938V19.0312C14.875 18.8572 14.9441 18.6903 15.0672 18.5672C15.1903 18.4441 15.3572 18.375 15.5312 18.375H18.5938C18.7678 18.375 18.9347 18.4441 19.0578 18.5672C19.1809 18.6903 19.25 18.8572 19.25 19.0312V39.5938C19.25 39.7678 19.1809 39.9347 19.0578 40.0578C18.9347 40.1809 18.7678 40.25 18.5938 40.25ZM27.125 25.375V22.5312C27.125 22.3572 27.0559 22.1903 26.9328 22.0672C26.8097 21.9441 26.6428 21.875 26.4688 21.875H20.7812C20.6072 21.875 20.4403 21.9441 20.3172 22.0672C20.1941 22.1903 20.125 22.3572 20.125 22.5312V25.375H27.125ZM20.125 36.75V39.5938C20.125 39.7678 20.1941 39.9347 20.3172 40.0578C20.4403 40.1809 20.6072 40.25 20.7812 40.25H26.4688C26.6428 40.25 26.8097 40.1809 26.9328 40.0578C27.0559 39.9347 27.125 39.7678 27.125 39.5938V36.75H20.125ZM20.125 27.125H27.125V35H20.125V27.125ZM32.5938 40.25H28.6562C28.4822 40.25 28.3153 40.1809 28.1922 40.0578C28.0691 39.9347 28 39.7678 28 39.5938V16.4062C28 16.2322 28.0691 16.0653 28.1922 15.9422C28.3153 15.8191 28.4822 15.75 28.6562 15.75H32.5938C32.7678 15.75 32.9347 15.8191 33.0578 15.9422C33.1809 16.0653 33.25 16.2322 33.25 16.4062V39.5938C33.25 39.7678 33.1809 39.9347 33.0578 40.0578C32.9347 40.1809 32.7678 40.25 32.5938 40.25ZM34.1797 19.507L35.8203 39.6227C35.8276 39.7109 35.8526 39.7968 35.894 39.875C35.9353 39.9533 35.992 40.0224 36.0607 40.0782C36.1294 40.134 36.2087 40.1753 36.2938 40.1997C36.3789 40.224 36.468 40.2309 36.5559 40.2199L40.5021 39.7277C40.6701 39.7067 40.8235 39.6216 40.9302 39.4901C41.0369 39.3586 41.0887 39.191 41.0747 39.0223L39.4297 18.988C39.4224 18.901 39.3979 18.8163 39.3575 18.7389C39.3171 18.6615 39.2617 18.5929 39.1945 18.5372C39.1272 18.4815 39.0496 18.4398 38.966 18.4144C38.8824 18.3891 38.7947 18.3807 38.7078 18.3898L34.7632 18.8005C34.593 18.8189 34.4367 18.903 34.3277 19.035C34.2187 19.167 34.1656 19.3364 34.1797 19.507Z" fill="black"/>
</svg>
