<svg width="56" height="56" viewBox="0 0 56 56" fill="none" xmlns="http://www.w3.org/2000/svg">
<rect width="56" height="56" rx="15" fill="#FFDDF6"/>
<g clip-path="url(#clip0_89_584)">
<path d="M33.6875 15H22.3125C20.9668 15 19.875 16.0918 19.875 17.4375V38.5625C19.875 39.9082 20.9668 41 22.3125 41H33.6875C35.0332 41 36.125 39.9082 36.125 38.5625V17.4375C36.125 16.0918 35.0332 15 33.6875 15ZM28 39.375C27.1012 39.375 26.375 38.6488 26.375 37.75C26.375 36.8512 27.1012 36.125 28 36.125C28.8988 36.125 29.625 36.8512 29.625 37.75C29.625 38.6488 28.8988 39.375 28 39.375Z" fill="black"/>
</g>
<defs>
<clipPath id="clip0_89_584">
<rect width="16.25" height="26" fill="white" transform="translate(19.875 15)"/>
</clipPath>
</defs>
</svg>
