<svg width="54" height="54" viewBox="0 0 54 54" fill="none" xmlns="http://www.w3.org/2000/svg">
<rect width="54" height="54" rx="27" fill="#2DC29E"/>
<g clip-path="url(#clip0_106_970)">
<path d="M27 16.4375C24.9109 16.4375 22.8688 17.057 21.1318 18.2176C19.3948 19.3782 18.041 21.0279 17.2415 22.9579C16.4421 24.8879 16.2329 27.0117 16.6405 29.0606C17.048 31.1096 18.054 32.9916 19.5312 34.4688C21.0084 35.946 22.8904 36.952 24.9394 37.3595C26.9883 37.7671 29.1121 37.5579 31.0421 36.7585C32.9721 35.959 34.6218 34.6052 35.7824 32.8682C36.943 31.1312 37.5625 29.0891 37.5625 27C37.5595 24.1996 36.4458 21.5147 34.4656 19.5345C32.4853 17.5542 29.8004 16.4405 27 16.4375ZM27 33.5C26.759 33.5 26.5233 33.4285 26.3229 33.2946C26.1225 33.1607 25.9663 32.9703 25.874 32.7476C25.7818 32.5249 25.7576 32.2799 25.8047 32.0435C25.8517 31.8071 25.9678 31.5899 26.1382 31.4195C26.3087 31.249 26.5258 31.1329 26.7622 31.0859C26.9987 31.0389 27.2437 31.063 27.4664 31.1553C27.6891 31.2475 27.8794 31.4037 28.0134 31.6041C28.1473 31.8046 28.2188 32.0402 28.2188 32.2812C28.2188 32.6045 28.0903 32.9145 27.8618 33.143C27.6332 33.3716 27.3232 33.5 27 33.5ZM27.8125 28.5519V28.625C27.8125 28.8405 27.7269 29.0472 27.5745 29.1995C27.4222 29.3519 27.2155 29.4375 27 29.4375C26.7845 29.4375 26.5779 29.3519 26.4255 29.1995C26.2731 29.0472 26.1875 28.8405 26.1875 28.625V27.8125C26.1875 27.597 26.2731 27.3903 26.4255 27.238C26.5779 27.0856 26.7845 27 27 27C28.3437 27 29.4375 26.0859 29.4375 24.9687C29.4375 23.8516 28.3437 22.9375 27 22.9375C25.6563 22.9375 24.5625 23.8516 24.5625 24.9687V25.375C24.5625 25.5905 24.4769 25.7971 24.3245 25.9495C24.1722 26.1019 23.9655 26.1875 23.75 26.1875C23.5345 26.1875 23.3279 26.1019 23.1755 25.9495C23.0231 25.7971 22.9375 25.5905 22.9375 25.375V24.9687C22.9375 22.9527 24.7595 21.3125 27 21.3125C29.2405 21.3125 31.0625 22.9527 31.0625 24.9687C31.0625 26.7339 29.665 28.2116 27.8125 28.5519Z" fill="white"/>
</g>
<defs>
<clipPath id="clip0_106_970">
<rect width="22" height="22" fill="white" transform="translate(16 16)"/>
</clipPath>
</defs>
</svg>
