<svg width="56" height="56" viewBox="0 0 56 56" fill="none" xmlns="http://www.w3.org/2000/svg">
<rect width="56" height="56" rx="15" fill="#FFD978"/>
<path d="M39.8462 16H16.1538C15.5826 16 15.0348 16.2299 14.6308 16.639C14.2269 17.0482 14 17.6032 14 18.1818V37.8182C14 38.3968 14.2269 38.9518 14.6308 39.361C15.0348 39.7701 15.5826 40 16.1538 40H39.8462C40.4174 40 40.9652 39.7701 41.3692 39.361C41.7731 38.9518 42 38.3968 42 37.8182V18.1818C42 17.6032 41.7731 17.0482 41.3692 16.639C40.9652 16.2299 40.4174 16 39.8462 16ZM23.2615 30.4C23.49 30.5736 23.6411 30.832 23.6815 31.1184C23.7219 31.4049 23.6483 31.6958 23.4769 31.9273C23.3056 32.1587 23.0504 32.3118 22.7677 32.3527C22.4849 32.3936 22.1977 32.319 21.9692 32.1455L17.6615 28.8727C17.5278 28.7711 17.4192 28.6393 17.3445 28.4879C17.2697 28.3364 17.2308 28.1694 17.2308 28C17.2308 27.8306 17.2697 27.6636 17.3445 27.5121C17.4192 27.3607 17.5278 27.2289 17.6615 27.1273L21.9692 23.8545C22.1977 23.6809 22.4849 23.6064 22.7677 23.6473C23.0504 23.6882 23.3056 23.8413 23.4769 24.0727C23.6483 24.3042 23.7219 24.5951 23.6815 24.8816C23.6411 25.168 23.49 25.4264 23.2615 25.6L20.1021 28L23.2615 30.4ZM31.189 20.6636L26.8813 35.9364C26.8446 36.0765 26.7807 36.2079 26.6933 36.3228C26.6058 36.4376 26.4967 36.5337 26.3722 36.6053C26.2477 36.6769 26.1103 36.7226 25.9682 36.7398C25.826 36.757 25.6819 36.7454 25.5442 36.7055C25.4066 36.6656 25.2782 36.5983 25.1665 36.5075C25.0548 36.4167 24.9621 36.3043 24.8938 36.1769C24.8256 36.0494 24.7831 35.9094 24.7688 35.7651C24.7546 35.6208 24.7689 35.475 24.811 35.3364L29.1187 20.0636C29.2014 19.7905 29.3867 19.5613 29.6346 19.425C29.8825 19.2888 30.1732 19.2565 30.4443 19.3351C30.7155 19.4136 30.9454 19.5968 31.0846 19.8452C31.2239 20.0937 31.2614 20.3875 31.189 20.6636ZM38.3385 28.8727L34.0308 32.1455C33.8023 32.319 33.5151 32.3936 33.2323 32.3527C32.9496 32.3118 32.6944 32.1587 32.5231 31.9273C32.3517 31.6958 32.2781 31.4049 32.3185 31.1184C32.3589 30.832 32.51 30.5736 32.7385 30.4L35.8979 28L32.7385 25.6C32.6253 25.514 32.53 25.4064 32.458 25.2831C32.3859 25.1598 32.3385 25.0234 32.3185 24.8816C32.2985 24.7397 32.3063 24.5953 32.3414 24.4565C32.3765 24.3178 32.4382 24.1873 32.5231 24.0727C32.6079 23.9581 32.7142 23.8616 32.8359 23.7886C32.9576 23.7156 33.0923 23.6676 33.2323 23.6473C33.3723 23.6271 33.5149 23.6349 33.6519 23.6705C33.7889 23.706 33.9176 23.7686 34.0308 23.8545L38.3385 27.1273C38.4722 27.2289 38.5808 27.3607 38.6555 27.5121C38.7303 27.6636 38.7692 27.8306 38.7692 28C38.7692 28.1694 38.7303 28.3364 38.6555 28.4879C38.5808 28.6393 38.4722 28.7711 38.3385 28.8727Z" fill="black"/>
</svg>
