<svg width="128" height="126" viewBox="0 0 128 126" fill="none" xmlns="http://www.w3.org/2000/svg">
<path d="M85.694 77.731V80.3473C85.694 83.6726 82.9963 86.3703 79.671 86.3703H48.3016C44.9766 86.3703 42.2784 83.6726 42.2784 80.3473V77.731M85.722 77.6768C85.722 67.3744 74.6835 61.2149 64.0004 61.2149C53.3164 61.2149 42.2784 67.3744 42.2784 77.6768M100.984 63.0137C100.984 83.3995 84.3863 99.9979 64.0004 99.9979C43.6139 99.9979 27.0161 83.3995 27.0161 63.0137C27.0161 42.6276 43.6139 26.0026 64.0004 26.0026C84.3863 26.0026 100.984 42.6003 100.984 63.0137ZM76.5365 47.615C76.5365 54.5376 70.9223 60.152 64.0004 60.152C57.0775 60.152 51.4631 54.5376 51.4631 47.615C51.4631 40.6925 57.0775 35.0781 64.0004 35.0781C70.9223 35.0781 76.5365 40.6925 76.5365 47.615ZM118.808 48.7598C116.682 48.4327 114.556 48.0784 112.458 47.7513C111.504 44.7534 110.386 42.0552 109.051 39.5206L112.84 34.3151C114.611 31.8622 114.338 28.5644 112.212 26.4113L100.575 14.7738C98.4218 12.648 95.1245 12.3755 92.671 14.147C90.9274 15.4007 89.1829 16.6816 87.4656 17.9353C84.6585 16.4908 81.9879 15.3734 79.2351 14.5012C78.9077 12.3755 78.5813 10.2768 78.2267 8.15108C77.7637 5.15307 75.2288 3 72.2038 3H55.7692C52.744 3 50.2094 5.15307 49.7461 8.15108C49.419 10.2768 49.0648 12.4027 48.7377 14.5285C45.7397 15.4825 43.0415 16.5999 40.5069 17.9353C38.7626 16.6816 37.0456 15.4007 35.3014 14.147C32.8485 12.3755 29.5507 12.648 27.3977 14.7466L15.7601 26.3841C13.6343 28.5099 13.3618 31.8349 15.1332 34.2878C16.4143 36.0321 17.6679 37.7764 18.9216 39.5206C17.4771 42.3278 16.3597 44.9987 15.4876 47.7513C13.3618 48.0784 11.2632 48.4327 9.13741 48.7598C6.1394 49.2231 3.98633 51.7577 3.98633 54.7829V71.217C3.98633 74.242 6.1394 76.7769 9.13741 77.24L15.5149 78.2492C16.4687 81.2471 17.5862 83.9448 18.9216 86.4797C17.6679 88.2242 16.3869 89.9406 15.1332 91.6851C13.3618 94.1377 13.6343 97.463 15.7601 99.5891L27.3977 111.226C29.5507 113.352 32.8485 113.625 35.3014 111.853C37.0456 110.6 38.7899 109.318 40.5341 108.065C43.3141 109.509 46.0122 110.627 48.7649 111.498C49.092 113.625 49.4463 115.724 49.7733 117.849C50.2366 120.82 52.7713 123 55.7965 123H72.2309C75.256 123 77.7909 120.847 78.2539 117.849L79.2622 111.471C82.2601 110.517 84.9587 109.4 87.4927 108.065C89.2372 109.318 90.9546 110.572 92.699 111.853C95.1516 113.625 98.4489 113.352 100.602 111.253L112.24 99.6163C114.365 97.4901 114.639 94.1648 112.867 91.7122C111.613 89.9678 110.332 88.2242 109.079 86.4797C110.523 83.6997 111.641 81.0011 112.512 78.2492C114.639 77.9218 116.737 77.5673 118.863 77.24C121.834 76.7769 124.014 74.242 124.014 71.217V54.7829C124.014 51.7577 121.834 49.2231 118.863 48.7598H118.808Z" stroke="#262626" stroke-width="6" stroke-linecap="round" stroke-linejoin="round"/>
</svg>
