<svg width="96" height="98" viewBox="0 0 96 98" fill="none" xmlns="http://www.w3.org/2000/svg">
<g id="Group">
<path id="Vector" d="M69.2499 19.104L56.0503 7.20402C51.3003 2.904 44.0501 2.904 39.3001 7.20402L26.1001 19.104" stroke="#262626" stroke-width="6" stroke-linecap="round" stroke-linejoin="round"/>
<path id="Vector_2" d="M78.0003 55.5038V24.104C78.0003 21.354 75.75 19.104 73.0001 19.104H23C20.25 19.104 18 21.354 18 24.104V55.5038" stroke="#262626" stroke-width="6" stroke-linecap="round" stroke-linejoin="round"/>
<path id="Vector_3" d="M31.7507 65.3542L5.95068 91.1541" stroke="#262626" stroke-width="6" stroke-linecap="round" stroke-linejoin="round"/>
<path id="Vector_4" d="M64.25 65.3542L90.0499 91.1541" stroke="#262626" stroke-width="6" stroke-linecap="round" stroke-linejoin="round"/>
<path id="Vector_5" d="M37.9995 39.1038H57.9997" stroke="#262626" stroke-width="6" stroke-linecap="round" stroke-linejoin="round"/>
<path id="Vector_6" d="M43 54.1042H52.9999" stroke="#262626" stroke-width="6" stroke-linecap="round" stroke-linejoin="round"/>
<path id="Vector_7" d="M3 43.354V89.1042C3 91.8541 5.24998 94.1037 7.99999 94.1037H87.9998C90.7497 94.1037 93 91.8541 93 89.1042V43.354" stroke="#262626" stroke-width="6" stroke-linecap="round" stroke-linejoin="round"/>
<path id="Vector_8" d="M18.0002 27.0039C18.0002 27.0039 10.0002 34.2039 4.6502 39.0539C2.25024 41.2539 2.50022 45.1038 5.20025 46.9038L42.4002 71.9038C45.7502 74.154 50.15 74.2038 53.5503 71.9038C62.9003 65.6036 81.6502 53.0537 90.8005 46.8539C93.5 45.0539 93.7502 41.2039 91.35 39.0039L78.0004 27.0039" stroke="#262626" stroke-width="6" stroke-linecap="round" stroke-linejoin="round"/>
</g>
</svg>
