<svg width="56" height="56" viewBox="0 0 56 56" fill="none" xmlns="http://www.w3.org/2000/svg">
<rect width="56" height="56" rx="15" fill="#C4BFFF"/>
<path d="M28 29.4C28.8376 29.4 29.6561 29.6504 30.3504 30.1191C31.0446 30.5878 31.5828 31.2534 31.8959 32.0303C32.2089 32.8072 32.2825 33.66 32.1072 34.4791C31.9319 35.2981 31.5157 36.0461 30.912 36.6268L28.238 39.2H32.2V42H23.8L23.7986 39.5864L28.9702 34.6094C29.1371 34.449 29.2616 34.2497 29.3325 34.0294C29.4035 33.8091 29.4188 33.5747 29.3769 33.347C29.3351 33.1194 29.2375 32.9057 29.0928 32.725C28.9481 32.5443 28.7609 32.4023 28.5479 32.3118C28.3349 32.2212 28.1028 32.1848 27.8723 32.2059C27.6418 32.227 27.4201 32.305 27.2271 32.4327C27.0341 32.5605 26.8758 32.7342 26.7664 32.9381C26.657 33.142 26.5998 33.3699 26.6 33.6014H23.8C23.7998 33.0497 23.9083 32.5034 24.1193 31.9937C24.3303 31.484 24.6396 31.0208 25.0297 30.6306C25.4197 30.2405 25.8827 29.931 26.3924 29.7198C26.9021 29.5087 27.4483 29.4 28 29.4ZM36.4 29.4V35H39.2V29.4H42V42H39.2V37.8H33.6V29.4H36.4ZM16.8 28C16.7983 29.6794 17.175 31.3377 17.9021 32.8515C18.6292 34.3654 19.6881 35.6959 21 36.7444V40.1268C18.871 38.8983 17.1031 37.1307 15.8743 35.0018C14.6454 32.873 13.999 30.458 14 28H16.8ZM28 14C35.259 14 41.2286 19.5258 41.93 26.6H39.1132C38.8404 24.4371 37.9424 22.4007 36.5293 20.7407C35.1161 19.0806 33.2493 17.869 31.1576 17.2544C29.0659 16.6399 26.8404 16.649 24.7538 17.2807C22.6673 17.9125 20.8105 19.1394 19.411 20.811L22.4 23.8H14V15.4L17.423 18.8244C18.736 17.3081 20.3602 16.0923 22.1851 15.2598C24.01 14.4273 25.9928 13.9977 27.9986 14H28Z" fill="black"/>
</svg>
