<svg width="42" height="42" viewBox="0 0 42 42" fill="none" xmlns="http://www.w3.org/2000/svg">
<rect y="0.0966797" width="41.8067" height="41.8067" rx="20.9034" fill="url(#paint0_linear_366_9339)"/>
<path fill-rule="evenodd" clip-rule="evenodd" d="M18.4834 35.4965C17.4221 35.5128 16.3771 35.3332 15.3811 34.9903C16.7364 35.9047 18.3365 36.3945 20.0019 36.3945C24.8023 36.3945 28.1822 32.5738 28.1822 26.01V5.64917L26.4024 6.49822V25.6835C26.4024 32.1166 23.1532 35.4965 18.4834 35.4965ZM16.4425 33.6188C15.4954 33.6188 14.4178 33.3902 13.3402 33.031C14.6301 33.9943 16.1649 34.5495 17.667 34.5495C21.7653 34.5495 24.7207 31.5615 24.7207 25.7488V7.13501L22.9736 7.96773V25.6018C22.9736 31.1533 20.3611 33.6188 16.4425 33.6188ZM14.7117 31.7574C13.83 31.7248 12.9483 31.5778 12.1156 31.3002C13.1769 32.133 14.4994 32.5901 15.871 32.5738C19.1039 32.5738 21.3571 30.3532 21.3571 25.4222V8.60451L19.6427 9.43723V25.6998C19.6427 30.092 17.765 31.7574 14.7117 31.7574ZM18.0099 10.123V26.1733C18.0099 29.0143 16.6221 30.7124 14.3198 30.7124C12.0176 30.7124 10.4501 29.047 10.4501 26.5652V13.5355L18.0099 10.123Z" fill="#002677"/>
<defs>
<linearGradient id="paint0_linear_366_9339" x1="20.9034" y1="0.0966797" x2="20.9034" y2="41.9034" gradientUnits="userSpaceOnUse">
<stop stop-color="#E3E9F7"/>
<stop offset="1" stop-color="#E3E9F7" stop-opacity="0.81"/>
</linearGradient>
</defs>
</svg>
