<svg width="56" height="56" viewBox="0 0 56 56" fill="none" xmlns="http://www.w3.org/2000/svg">
<rect width="56" height="56" rx="15" fill="#E0F8DE"/>
<g clip-path="url(#clip0_79_1666)">
<path d="M38.8889 14H17.1111C15.4 14 14 15.4 14 17.1111V38.8889C14 40.6 15.4 42 17.1111 42H38.8889C40.6 42 42 40.6 42 38.8889V17.1111C42 15.4 40.6 14 38.8889 14ZM38.8889 38.8889H17.1111V17.1111H38.8889V38.8889ZM20.2222 24.8889H23.3333V35.7778H20.2222V24.8889ZM26.4444 20.2222H29.5556V35.7778H26.4444V20.2222ZM32.6667 29.5556H35.7778V35.7778H32.6667V29.5556Z" fill="black"/>
</g>
<defs>
<clipPath id="clip0_79_1666">
<rect width="28" height="28" fill="white" transform="translate(14 14)"/>
</clipPath>
</defs>
</svg>
