<svg width="54" height="54" viewBox="0 0 54 54" fill="none" xmlns="http://www.w3.org/2000/svg">
<rect width="54" height="54" rx="27" fill="#2DC29E"/>
<path d="M25.914 17.2222H20.4819C19.6175 17.2222 18.7885 17.5656 18.1773 18.1768C17.566 18.788 17.2227 19.617 17.2227 20.4814V33.5185C17.2227 34.3829 17.566 35.2119 18.1773 35.8231C18.7885 36.4343 19.6175 36.7777 20.4819 36.7777H33.519C34.3834 36.7777 35.2124 36.4343 35.8236 35.8231C36.4348 35.2119 36.7782 34.3829 36.7782 33.5185V22.6543H28.3585C27.7102 22.6543 27.0884 22.3967 26.63 21.9383C26.1716 21.4799 25.914 20.8581 25.914 20.2098V17.2222ZM36.7782 21.0246V20.4814C36.7782 19.617 36.4348 18.788 35.8236 18.1768C35.2124 17.5656 34.3834 17.2222 33.519 17.2222H27.5436V20.2098C27.5436 20.6596 27.9087 21.0246 28.3585 21.0246H36.7782Z" fill="white"/>
</svg>
