<svg width="54" height="54" viewBox="0 0 54 54" fill="none" xmlns="http://www.w3.org/2000/svg">
<rect width="54" height="54" rx="27" fill="#2DC29E"/>
<path d="M32.985 19.1576L31.0819 21.0341C32.2384 21.7207 33.1954 22.6904 33.86 23.849C34.5245 25.0077 34.8742 26.316 34.875 27.6471C34.875 29.7064 34.0453 31.6814 32.5685 33.1375C31.0916 34.5937 29.0886 35.4118 27 35.4118C24.9114 35.4118 22.9084 34.5937 21.4315 33.1375C19.9547 31.6814 19.125 29.7064 19.125 27.6471C19.125 24.8388 20.6475 22.3929 22.905 21.0212L21.015 19.1576C19.621 20.106 18.4817 21.3742 17.6951 22.8531C16.9086 24.3319 16.4985 25.9772 16.5 27.6471C16.5 30.3928 17.6063 33.0261 19.5754 34.9677C21.5445 36.9092 24.2152 38 27 38C29.7848 38 32.4555 36.9092 34.4246 34.9677C36.3938 33.0261 37.5 30.3928 37.5 27.6471C37.5 24.1271 35.715 21.0212 32.985 19.1576ZM28.3125 16H25.6875V28.9412H28.3125" fill="white"/>
</svg>
