<svg width="20" height="21" viewBox="0 0 20 21" fill="none" xmlns="http://www.w3.org/2000/svg">
<path d="M16.9699 11.089C17.1261 10.9328 17.2139 10.7208 17.2139 10.4999C17.2139 10.2789 17.1261 10.067 16.9699 9.91071L12.2557 5.19655C12.1788 5.11695 12.0869 5.05347 11.9852 5.00979C11.8835 4.96612 11.7742 4.94313 11.6635 4.94217C11.5529 4.94121 11.4432 4.96229 11.3407 5.00419C11.2383 5.04609 11.1453 5.10797 11.067 5.18622C10.9888 5.26446 10.9269 5.3575 10.885 5.45992C10.8431 5.56233 10.822 5.67206 10.823 5.78271C10.824 5.89336 10.847 6.00271 10.8906 6.10438C10.9343 6.20605 10.9978 6.29801 11.0774 6.37488L14.369 9.66655L3.33321 9.66655C3.1122 9.66655 2.90023 9.75434 2.74396 9.91062C2.58767 10.0669 2.49988 10.2789 2.49988 10.4999C2.49988 10.7209 2.58767 10.9329 2.74396 11.0891C2.90023 11.2454 3.1122 11.3332 3.33321 11.3332L14.369 11.3332L11.0774 14.6249C10.9256 14.782 10.8416 14.9925 10.8435 15.211C10.8454 15.4295 10.933 15.6386 11.0875 15.7931C11.242 15.9476 11.451 16.0352 11.6695 16.0371C11.888 16.039 12.0985 15.955 12.2557 15.8032L16.9699 11.089Z" fill="currentColor"/>
</svg>
