<svg width="100" height="100" viewBox="0 0 100 100" fill="none" xmlns="http://www.w3.org/2000/svg">
<g clip-path="url(#clip0_145_935)">
<path d="M0 0V6.77L6.72 0H0ZM8.91 0L0 8.96V12.82L12.83 0H8.91ZM15.02 0L0 15.06V18.93L18.9 0H15.02ZM21.13 0L0 21.12V25.04L25 0H21.13ZM25 0L50 24.99V21.12L28.87 0H25ZM50 24.99L75 49.97L100 25L75 0L50 24.99ZM0 25.04V28.91L21.13 50.03H25L0 25.03V25.04ZM25 50.03H28.87L50 28.9V25.03L25 50.03ZM25 50.03L0 75L25 100L50 75.01L25 50.03ZM50 75L75 50.02H71.13L50 71.14V75.01V75ZM50 75V78.87L71.13 100H75L50 75.01V75ZM75 100H78.87L100 78.88V75.01L75 100ZM100 75.01V71.14L78.87 50.03H75L100 75V75.01ZM31.1 0L50 18.93V15.06L34.98 0H31.11H31.1ZM37.17 0L50 12.82V8.96L41.04 0H37.17ZM43.27 0L50 6.77V0H43.28H43.27ZM25 2.19L2.14 25.04H25V2.19ZM25 25.04V47.84L47.81 25.04H25ZM75 3.92L96.13 25.04L75 46.16L53.87 25.04L75 3.92ZM75 6.11L56.06 25.04L74.95 43.92L93.89 25.04L75 6.1V6.11ZM75 10.03L90.07 25.03L75 40.06L59.98 25.04L75 10.03ZM75 12.21L62.17 25.04L75 37.86L87.83 25.04L75 12.2V12.21ZM75 16.03L83.96 25.03L75 33.95L66.04 25L75 16.03ZM75 18.27L68.28 25.04L75 31.76L81.77 25.04H81.72L75 18.27ZM0 31.09V34.96L15.02 50.03H18.89L0 31.09ZM50 31.09L31.1 50.03H34.98L50 34.96V31.1V31.09ZM0 37.2V41.07L8.91 50.03H12.83L0 37.2ZM50 37.2L37.17 50.03H41.04L50 41.07V37.2ZM0 43.3V50.03H6.72L0 43.3ZM50 43.3L43.28 50.03H50V43.3ZM50 50.03V56.74L56.72 50.03H50ZM58.96 50.03L50 58.93V62.85L62.83 50.03H58.96ZM65.02 50.03L50 65.03V68.91L68.94 50.03H65.02ZM81.11 50.03L100 68.9V65.03L84.98 50.03H81.11ZM87.22 50.03L100 62.85V58.93L91.09 50.03H87.22ZM93.28 50.03L100 56.74V50.03H93.28ZM75 52.2L52.19 75H75V52.2ZM75 75V97.8L97.81 75H75ZM25 53.9L46.13 75.02L25 96.13L3.87 75.01L25 53.9ZM25 56.1L6.1 74.95L25.05 93.83L43.95 74.95L25 56.08V56.1ZM25 60L40.02 75.01L25 90.03L9.98 75L25 60ZM25 62.19L12.17 75L25 87.84L37.83 75L25 62.2V62.19ZM25 66.06L33.96 75L25 83.97L16.04 75L25 66.06ZM25 68.29L18.28 75.01L25 81.73L31.72 75.01L25 68.3V68.29ZM50 81.12V84.99L65.02 100H68.89L50 81.12ZM100 81.12L81.1 100H84.98L100 84.99V81.12ZM50 87.18V91.04L58.96 100H62.83L50 87.18ZM100 87.18L87.22 100H91.09L100 91.04V87.18ZM50 93.28V100H56.72L50 93.28ZM100 93.28L93.28 100H100V93.28Z" fill="#28D6AC"/>
</g>
<defs>
<clipPath id="clip0_145_935">
<rect width="100" height="100" fill="white"/>
</clipPath>
</defs>
</svg>
