<svg xmlns="http://www.w3.org/2000/svg" width="22" height="16" fill="none"><g clip-path="url(#pajamas-arrow-up_svg__a)"><path fill="#fff" fill-rule="evenodd" d="M13.122 12.379a.94.94 0 0 0-.29.668.96.96 0 0 0 .266.679.9.9 0 0 0 .66.274.9.9 0 0 0 .65-.298l3.948-4.058.644-.661-.644-.662-3.946-4.058A.9.9 0 0 0 13.77 4a.9.9 0 0 0-.637.274.95.95 0 0 0-.267.654.95.95 0 0 0 .256.659l2.392 2.46H2.91a.9.9 0 0 0-.644.273.95.95 0 0 0-.267.663.95.95 0 0 0 .267.662c.17.175.402.274.644.274h12.603z" clip-rule="evenodd"></path></g><defs><clipPath id="pajamas-arrow-up_svg__a"><path fill="#fff" d="M22 0v16H0V0z"></path></clipPath></defs></svg>