<svg xmlns="http://www.w3.org/2000/svg" width="30" height="30" fill="none"><path fill="#000" d="M15 0c8.285 0 15 6.716 15 15 0 8.285-6.715 15-15 15a14.93 14.93 0 0 1-7.545-2.032L.006 30l2.028-7.452A14.93 14.93 0 0 1 0 15C0 6.715 6.716 0 15 0M9.888 7.95l-.3.012a1.4 1.4 0 0 0-.558.15 2 2 0 0 0-.441.342c-.18.17-.282.316-.391.459a4.1 4.1 0 0 0-.85 2.517c.004.735.196 1.45.496 2.12.613 1.352 1.623 2.785 2.955 4.113.32.319.636.64.975.939a14.2 14.2 0 0 0 5.76 3.069l.852.13c.277.015.555-.006.834-.02.436-.022.863-.14 1.249-.346q.294-.152.575-.33s.064-.042.187-.135c.202-.15.327-.256.495-.432.125-.129.233-.28.315-.453.117-.245.234-.711.282-1.1.036-.296.026-.459.021-.559-.006-.16-.14-.327-.285-.397l-.873-.392s-1.305-.569-2.103-.931a.8.8 0 0 0-.264-.062.72.72 0 0 0-.567.19c-.008-.003-.108.083-1.192 1.397a.53.53 0 0 1-.552.195 2 2 0 0 1-.287-.099c-.186-.078-.25-.108-.378-.162a9 9 0 0 1-2.363-1.505c-.189-.165-.364-.344-.544-.518a9.5 9.5 0 0 1-1.53-1.902l-.088-.143a1.4 1.4 0 0 1-.153-.307c-.057-.221.091-.398.091-.398s.364-.399.534-.615c.165-.21.305-.414.395-.56.176-.285.232-.577.139-.803q-.63-1.54-1.302-3.062c-.088-.201-.351-.345-.59-.374q-.121-.014-.242-.024a5 5 0 0 0-.605.006l.302-.012z"></path></svg>