<svg xmlns="http://www.w3.org/2000/svg" width="30" height="30" fill="none"><path fill="#000" d="M15 0C6.716 0 0 6.716 0 15s6.716 15 15 15 15-6.716 15-15S23.284 0 15 0m-3.672 21.217H8.291v-9.775h3.037zM9.791 10.242c-.96 0-1.58-.68-1.58-1.52 0-.858.639-1.517 1.619-1.517s1.58.66 1.598 1.517c0 .84-.619 1.52-1.637 1.52m12.63 10.975h-3.037V15.8c0-1.26-.44-2.117-1.539-2.117-.839 0-1.337.58-1.557 1.137-.082.199-.102.48-.102.76v5.636h-3.04v-6.657c0-1.22-.038-2.24-.079-3.118h2.64l.138 1.357h.061c.4-.637 1.38-1.578 3.019-1.578 1.998 0 3.497 1.34 3.497 4.217z"></path></svg>