<svg xmlns="http://www.w3.org/2000/svg" width="30" height="30" fill="none"><path fill="#000" d="M30 15a15 15 0 1 1-30 0 15 15 0 0 1 30 0m-14.462-3.926q-2.189.911-8.749 3.768-1.064.424-1.115.83c-.057.455.515.635 1.293.88l.329.104c.765.249 1.796.54 2.33.55q.732.019 1.628-.6 6.128-4.135 6.326-4.18c.094-.023.225-.05.311.03.088.077.079.225.07.264-.057.242-2.301 2.327-3.462 3.407-.362.337-.618.576-.67.63a15 15 0 0 1-.353.349c-.713.686-1.245 1.2.028 2.04.613.405 1.104.736 1.594 1.07.532.364 1.065.726 1.754 1.18.175.112.344.234.507.35.62.443 1.181.84 1.87.777.4-.038.815-.413 1.025-1.538.497-2.657 1.473-8.411 1.698-10.783a2.7 2.7 0 0 0-.024-.59.63.63 0 0 0-.214-.408 1 1 0 0 0-.58-.174c-.563.01-1.431.311-5.596 2.044"></path></svg>