<svg width="34" height="27" viewBox="0 0 34 27" fill="none" xmlns="http://www.w3.org/2000/svg">
<path d="M15.3105 3.41797C13.7806 4.29688 12.5436 5.06185 11.5996 5.71289C10.6556 6.33138 9.69531 7.16146 8.71875 8.20312C7.80729 9.17969 7.10742 10.2051 6.61914 11.2793C6.13086 12.3535 5.78906 13.737 5.59375 15.4297H7.9375C9.95573 15.4297 11.5345 15.9342 12.6738 16.9434C13.8457 17.9199 14.4316 19.3685 14.4316 21.2891C14.4316 22.6562 13.9108 23.9421 12.8691 25.1465C11.86 26.3184 10.4603 26.9043 8.66992 26.9043C5.87044 26.9043 3.86849 25.9928 2.66406 24.1699C1.45964 22.3145 0.857422 19.8893 0.857422 16.8945C0.857422 14.7786 1.31315 12.8581 2.22461 11.1328C3.13607 9.375 4.24284 7.8125 5.54492 6.44531C6.87956 5.04557 8.29557 3.85742 9.79297 2.88086C11.2904 1.9043 12.5436 1.10677 13.5527 0.488281L15.3105 3.41797ZM33.377 3.41797C31.847 4.29688 30.61 5.06185 29.666 5.71289C28.722 6.33138 27.7617 7.16146 26.7852 8.20312C25.8411 9.21224 25.125 10.2539 24.6367 11.3281C24.181 12.3698 23.8555 13.737 23.6602 15.4297H26.0039C28.0221 15.4297 29.6009 15.9342 30.7402 16.9434C31.9121 17.9199 32.498 19.3685 32.498 21.2891C32.498 22.6562 31.9772 23.9421 30.9355 25.1465C29.9264 26.3184 28.5267 26.9043 26.7363 26.9043C23.9368 26.9043 21.9349 25.9928 20.7305 24.1699C19.526 22.3145 18.9238 19.8893 18.9238 16.8945C18.9238 14.7786 19.3796 12.8581 20.291 11.1328C21.2025 9.375 22.3092 7.8125 23.6113 6.44531C24.946 5.04557 26.362 3.85742 27.8594 2.88086C29.3568 1.9043 30.61 1.10677 31.6191 0.488281L33.377 3.41797Z" fill="#367167"/>
</svg>
